<?xml version="1.0" standalone="no"?>
<!DOCTYPE svg PUBLIC "-//W3C//DTD SVG 20010904//EN"
 "http://www.w3.org/TR/2001/REC-SVG-20010904/DTD/svg10.dtd">
<svg version="1.0" xmlns="http://www.w3.org/2000/svg"
 width="1024.000000pt" height="1024.000000pt" viewBox="0 0 1024.000000 1024.000000"
 preserveAspectRatio="xMidYMid meet">

<g transform="translate(0.000000,1024.000000) scale(0.100000,-0.100000)"
fill="#000000" stroke="none">
<path d="M4890 9653 c22 -9 48 -13 73 -9 32 5 41 2 62 -20 25 -27 23 -59 -2
-50 -8 4 -26 9 -40 12 -19 5 -22 9 -11 16 9 7 7 8 -7 3 -11 -4 -40 -9 -65 -12
-36 -3 -41 -2 -27 7 9 6 26 9 36 5 11 -3 22 -1 26 5 9 14 -38 13 -70 -2 -41
-18 -29 -28 36 -28 33 0 86 -7 116 -16 30 -9 57 -13 60 -10 4 3 0 6 -8 6 -11
0 -11 2 1 10 13 8 12 10 -3 10 -10 0 -16 4 -12 9 3 5 1 13 -5 16 -6 4 -8 15
-5 25 4 14 -2 19 -34 24 -22 3 -46 3 -54 0 -8 -3 -18 -1 -22 5 -3 6 -23 11
-43 10 l-37 -1 35 -15z"/>
<path d="M4773 9649 c-18 -5 -35 -14 -38 -19 -9 -14 19 -12 33 2 10 10 15 10
20 1 5 -8 13 -9 22 -3 13 9 13 10 0 11 -8 1 -1 5 15 9 27 7 28 8 5 8 -14 0
-39 -4 -57 -9z"/>
<path d="M4865 9640 c3 -5 8 -10 11 -10 2 0 4 5 4 10 0 6 -5 10 -11 10 -5 0
-7 -4 -4 -10z"/>
<path d="M4664 9602 c-72 -38 -144 -93 -144 -109 0 -8 -4 -12 -10 -8 -5 3 -17
-7 -27 -21 -13 -20 -14 -29 -5 -32 7 -2 9 -8 6 -13 -4 -6 -11 -6 -19 1 -10 8
-22 -1 -52 -37 -50 -60 -132 -182 -111 -166 8 7 19 9 23 5 5 -4 5 1 1 12 -5
15 -2 17 14 13 23 -6 26 3 8 23 -7 8 -3 6 10 -4 22 -19 22 -19 22 2 0 12 4 21
8 20 5 -2 28 20 51 47 24 28 56 62 73 78 17 15 27 27 22 28 -5 0 1 4 14 9 17
7 21 15 18 35 -3 16 1 28 12 35 14 8 14 10 2 10 -9 0 -5 6 10 15 33 19 50 18
26 0 -11 -8 -15 -15 -9 -15 11 0 40 30 36 37 -2 1 -1 3 2 3 3 0 7 0 10 0 3 0
1 -9 -5 -19 -7 -14 -7 -22 2 -27 7 -5 8 -3 3 6 -5 8 -3 11 6 8 8 -3 22 -1 33
4 15 8 16 12 5 19 -11 7 -10 9 4 9 9 0 17 -5 17 -11 0 -5 5 -7 11 -3 6 4 32
13 58 20 40 12 41 13 11 10 -19 -2 -46 -7 -59 -12 -16 -5 -22 -4 -18 3 5 7 -1
9 -15 6 -19 -4 -20 -3 -8 6 13 9 13 11 1 11 -11 0 -9 4 5 15 28 21 15 17 -42
-13z m16 -12 c-12 -8 -12 -10 -1 -10 8 0 12 -3 8 -6 -3 -4 -14 -3 -24 0 -15 6
-15 8 -3 16 8 6 20 10 25 10 6 0 3 -5 -5 -10z m10 -34 c0 -3 -4 -8 -10 -11 -5
-3 -10 -1 -10 4 0 6 5 11 10 11 6 0 10 -2 10 -4z m-136 -51 c-12 -18 -13 -25
-4 -25 7 0 2 -10 -11 -23 -38 -37 -114 -121 -132 -147 -9 -14 -17 -19 -17 -12
0 6 -5 12 -11 12 -5 0 -8 -4 -4 -9 3 -5 0 -13 -6 -16 -24 -15 -17 5 18 51 61
80 66 85 74 72 6 -9 11 -8 23 1 12 10 14 17 5 27 -9 11 -7 15 5 20 9 3 13 11
9 17 -3 5 -1 7 5 3 6 -3 20 7 32 24 26 36 37 40 14 5z"/>
<path d="M4511 9460 c-13 -11 -19 -20 -14 -20 6 0 18 9 28 20 23 25 17 25 -14
0z"/>
<path d="M4442 9384 c-7 -8 -8 -14 -3 -14 10 0 25 19 20 25 -2 1 -10 -3 -17
-11z"/>
<path d="M4405 9340 c-10 -11 -16 -22 -13 -25 3 -3 13 6 22 20 20 30 16 32 -9
5z"/>
<path d="M5110 9605 c7 -8 16 -12 21 -9 5 3 6 -2 3 -10 -3 -9 -1 -16 5 -16 6
0 11 9 11 21 0 15 -5 19 -15 15 -8 -3 -15 -1 -15 4 0 6 -5 10 -11 10 -8 0 -8
-5 1 -15z"/>
<path d="M5185 9570 c3 -5 8 -10 11 -10 2 0 4 5 4 10 0 6 -5 10 -11 10 -5 0
-7 -4 -4 -10z"/>
<path d="M4610 9509 c0 -6 -8 -9 -18 -7 -11 3 -19 0 -19 -8 0 -19 18 -17 47 6
20 16 22 20 8 20 -10 0 -18 -5 -18 -11z"/>
<path d="M5260 9509 c0 -5 -5 -7 -11 -4 -5 4 -19 -1 -30 -11 -18 -16 -19 -16
-13 -1 4 12 1 17 -10 17 -20 0 -20 -9 0 -31 9 -10 23 -15 32 -12 9 4 13 2 9
-5 -4 -6 7 -21 25 -33 17 -13 28 -16 23 -8 -18 28 -14 38 17 34 33 -4 51 -15
25 -15 -9 0 -18 -4 -21 -9 -4 -5 3 -7 14 -4 12 3 20 0 20 -6 0 -7 6 -11 13 -9
20 4 58 -13 51 -23 -3 -6 -11 -6 -17 -2 -7 5 -23 8 -37 8 -14 0 -28 4 -32 10
-4 5 -10 7 -13 3 -3 -3 17 -29 45 -57 27 -29 50 -49 50 -45 0 5 -14 23 -32 41
-22 23 -27 33 -16 33 8 0 22 -10 31 -22 15 -22 16 -22 30 -4 13 18 14 18 30
-4 9 -13 13 -28 10 -33 -3 -6 -1 -7 5 -3 7 4 10 2 6 -7 -2 -7 -11 -14 -19 -14
-18 0 -19 9 -4 24 8 8 8 13 0 17 -6 4 -11 0 -11 -11 0 -14 -2 -15 -9 -4 -6 10
-9 6 -8 -14 1 -16 14 -41 29 -57 15 -16 28 -32 29 -36 4 -17 29 -45 35 -39 4
4 2 13 -4 20 -9 10 -8 14 3 14 8 0 12 -4 9 -8 -2 -4 2 -9 8 -12 11 -3 10 -7 0
-19 -10 -13 -9 -20 6 -38 13 -16 21 -20 26 -12 4 7 3 12 -3 12 -6 0 -8 8 -5
18 5 13 4 14 -4 3 -6 -8 -12 -9 -16 -3 -3 6 -2 14 4 17 6 4 8 16 4 28 -6 19
-5 20 8 10 8 -7 17 -10 21 -7 3 3 11 -10 18 -30 7 -19 16 -33 21 -30 7 5 12
-10 9 -29 -1 -5 3 -6 8 -3 16 11 21 -10 7 -30 -8 -10 -12 -25 -9 -34 2 -8 -5
2 -17 23 -11 20 -27 37 -36 37 -8 0 -12 -5 -9 -10 4 -6 11 -7 17 -4 8 5 9 1 5
-10 -4 -11 -3 -15 4 -11 6 4 9 1 8 -6 -3 -15 48 -102 63 -107 4 -2 6 -8 2 -13
-3 -5 0 -9 6 -9 6 0 9 -4 5 -9 -3 -5 -1 -12 5 -16 19 -11 10 17 -18 64 -28 45
-36 86 -17 86 6 0 9 -9 8 -20 -2 -28 17 -76 28 -69 5 3 2 12 -6 20 -17 17 -19
33 -6 52 11 19 33 -37 27 -70 -2 -14 0 -31 5 -39 6 -10 9 -10 9 -1 0 6 4 12 8
12 5 0 9 -13 9 -29 0 -16 10 -38 23 -52 16 -17 21 -19 17 -7 -3 10 -2 20 3 23
11 7 -23 79 -41 91 -8 4 -9 3 -5 -4 4 -7 2 -12 -5 -12 -7 0 -9 8 -6 21 6 22
-28 89 -45 89 -5 0 -6 5 -2 12 5 7 3 8 -5 4 -8 -5 -11 -3 -9 6 4 19 -72 128
-89 128 -7 0 -13 5 -13 11 0 5 6 7 13 3 6 -4 4 2 -7 14 -10 12 -23 19 -29 15
-6 -4 -8 0 -5 9 6 15 -112 162 -132 164 -5 1 -17 2 -26 3 -14 1 -14 4 -4 17 8
8 9 14 3 12 -5 -2 -22 12 -37 30 -27 31 -56 43 -56 21z m44 -18 c13 -14 14
-21 6 -26 -7 -4 -15 -3 -19 3 -4 7 -12 6 -24 -3 -11 -8 -14 -15 -7 -18 6 -3 5
-4 -2 -3 -7 2 -13 9 -13 17 0 8 -8 13 -18 13 -14 -2 -15 1 -6 13 7 7 18 12 25
9 7 -3 16 -1 19 4 9 15 20 12 39 -9z m105 -114 c9 3 12 1 6 -4 -5 -4 -12 -11
-15 -15 -3 -4 -12 3 -19 15 -9 15 -10 18 -1 10 7 -6 20 -9 29 -6z m96 -115 c0
-9 6 -17 13 -17 6 0 12 -3 12 -7 0 -5 0 -11 0 -16 0 -4 -13 -8 -30 -8 -16 -1
-29 1 -28 5 2 19 -3 32 -11 27 -5 -3 -16 5 -24 17 -13 20 -13 24 -1 24 13 0
18 -11 15 -30 -1 -5 3 -6 9 -2 6 3 8 10 5 15 -3 4 -2 16 1 25 6 15 8 15 23 1
9 -9 16 -24 16 -34z m228 -349 c-5 -12 -3 -14 7 -8 9 5 11 4 6 -3 -4 -7 -2
-12 4 -12 6 0 8 -5 5 -11 -5 -6 -13 -3 -22 10 -8 12 -11 26 -8 31 10 16 15 12
8 -7z"/>
<path d="M5271 9497 c2 -1 13 -9 24 -17 19 -14 19 -14 6 3 -7 9 -18 17 -24 17
-6 0 -8 -1 -6 -3z"/>
<path d="M5247 9479 c7 -7 15 -10 18 -7 3 3 -2 9 -12 12 -14 6 -15 5 -6 -5z"/>
<path d="M5474 9264 c6 -32 12 -39 21 -25 3 6 1 11 -6 11 -8 0 -9 3 0 13 11
14 5 27 -11 27 -5 0 -6 -12 -4 -26z"/>
<path d="M4315 9200 c-3 -5 -3 -14 0 -20 9 -15 -1 -12 -18 4 -12 13 -22 0 -71
-94 -49 -95 -55 -112 -46 -136 6 -15 9 -29 6 -31 -2 -3 -7 5 -11 18 -6 17 -9
19 -16 8 -12 -18 -11 -32 0 -24 6 3 14 -2 19 -11 8 -15 10 -15 15 0 4 9 2 27
-3 41 -8 20 -4 33 19 70 19 30 31 41 38 34 8 -8 13 -7 18 1 4 6 2 17 -5 23
-10 9 -11 9 -5 -3 6 -12 5 -13 -5 -3 -10 9 -10 15 -2 26 7 8 9 17 5 20 -3 4
-1 7 5 7 7 0 12 8 12 17 0 13 3 14 11 6 9 -9 8 -16 -5 -28 -18 -18 -21 -35 -6
-35 14 0 32 39 26 56 -3 8 1 14 9 14 18 0 39 36 26 45 -5 3 -12 1 -16 -5z"/>
<path d="M5561 9155 c-1 -24 15 -52 24 -43 4 3 0 19 -9 35 -13 23 -15 24 -15
8z"/>
<path d="M4223 9025 c-7 -8 -13 -19 -13 -25 0 -5 -4 -10 -10 -10 -5 0 -10 -4
-10 -10 0 -23 26 -7 42 25 18 36 13 46 -9 20z"/>
<path d="M4131 8884 c-6 -15 -9 -29 -6 -32 3 -3 5 1 5 9 0 11 2 11 10 -1 14
-22 12 -29 -7 -26 -23 4 -60 -81 -43 -98 10 -10 14 8 11 44 -1 11 1 11 9 -2 8
-12 8 -24 0 -37 -5 -11 -10 -26 -9 -33 0 -7 7 2 15 20 10 22 11 38 5 50 -6 12
-4 23 6 37 15 19 15 19 10 -10 l-6 -30 14 30 c8 17 11 38 8 49 -3 11 -1 16 5
12 12 -7 21 13 14 33 -3 10 -9 7 -19 -10 -13 -23 -14 -23 -8 -1 9 30 1 28 -14
-4z"/>
<path d="M5761 8728 c44 -90 89 -189 101 -220 11 -32 25 -58 30 -58 5 0 6 6 1
13 -14 22 -32 81 -26 87 3 3 8 0 10 -7 2 -7 11 -9 19 -6 8 3 14 0 14 -7 0 -6
5 -8 10 -5 6 3 10 2 10 -4 0 -6 -9 -15 -20 -21 -11 -6 -18 -16 -14 -22 4 -7
10 -6 16 3 7 10 8 6 4 -12 -3 -16 -1 -31 7 -37 9 -8 11 0 9 36 -2 38 -1 43 8
29 6 -9 10 -25 9 -35 -2 -21 27 -89 47 -109 19 -19 18 -9 -3 30 -9 18 -16 38
-14 46 1 7 -2 10 -8 7 -5 -4 -9 2 -8 12 2 26 -54 152 -65 146 -5 -3 -6 -14 -3
-25 4 -10 3 -19 -2 -19 -14 0 -13 42 0 60 11 13 10 13 -6 1 -10 -8 -16 -22
-14 -33 3 -10 2 -18 -2 -18 -11 0 -41 39 -41 55 0 7 -4 17 -10 20 -5 3 -10 11
-10 16 0 6 5 7 10 4 6 -3 10 -2 10 4 0 15 -18 23 -22 9 -3 -7 -7 -5 -11 6 -4
10 -3 15 3 11 13 -8 13 1 -2 25 -9 14 -10 29 -2 60 7 23 7 40 2 40 -5 0 -6 6
-2 13 3 6 -6 -1 -21 -17 l-28 -29 -29 57 c-15 31 -30 56 -33 56 -2 0 32 -73
76 -162z m23 32 c-7 -41 -7 -42 -20 -19 -15 27 -19 52 -5 30 8 -12 11 -9 17
12 10 42 16 26 8 -23z"/>
<path d="M5768 8845 c-4 -20 -2 -23 8 -14 7 6 10 17 7 25 -7 20 -10 18 -15
-11z"/>
<path d="M5810 8785 c0 -5 7 -23 15 -39 12 -23 12 -27 1 -23 -16 6 -10 -29 7
-40 6 -3 7 -1 3 6 -4 6 -3 17 2 24 7 8 4 23 -8 47 -11 19 -19 31 -20 25z"/>
<path d="M4070 8713 c0 -11 -4 -23 -9 -28 -12 -15 -43 -116 -37 -123 3 -3 6 3
6 14 0 16 2 17 10 4 7 -11 10 -7 10 17 0 35 18 83 32 83 13 0 9 -16 -7 -30 -8
-7 -15 -24 -14 -39 0 -23 3 -20 20 17 11 26 16 54 13 68 -8 30 -24 42 -24 17z"/>
<path d="M5854 8677 c-3 -10 -4 -21 0 -24 3 -4 6 0 6 8 1 8 7 3 15 -11 8 -14
14 -20 14 -15 0 6 -6 21 -14 35 -12 22 -14 23 -21 7z"/>
<path d="M4001 8508 c-7 -24 -15 -51 -17 -60 -3 -10 -1 -18 5 -18 6 0 11 14
11 32 0 17 3 29 6 26 9 -10 -7 -118 -18 -112 -5 3 -6 14 -3 25 4 10 3 19 -2
19 -4 0 -16 -30 -25 -68 -9 -37 -20 -75 -23 -84 -4 -10 -3 -18 3 -18 5 0 15
27 23 60 13 60 24 75 31 43 3 -10 10 7 16 37 7 30 20 74 29 98 12 32 13 46 5
54 -9 9 -12 6 -13 -12 -1 -14 -1 -32 0 -40 2 -13 1 -13 -8 0 -6 8 -8 25 -4 37
10 41 -4 24 -16 -19z"/>
<path d="M6823 8495 c-67 -20 -126 -60 -181 -120 -65 -71 -94 -145 -98 -249
-2 -43 -5 -80 -8 -83 -2 -2 2 -16 10 -31 12 -24 12 -29 -4 -41 -16 -13 -16
-13 2 -7 13 5 17 2 13 -8 -4 -10 -1 -13 7 -10 8 3 24 -12 39 -39 36 -61 98
-114 176 -151 58 -27 76 -31 151 -31 100 0 166 21 237 75 132 99 190 262 149
418 -9 34 -14 67 -11 72 3 6 1 10 -5 10 -7 0 -10 6 -7 14 4 9 -3 16 -15 20
-18 4 -19 7 -8 21 7 8 21 13 31 10 11 -3 29 -7 42 -10 21 -6 21 -5 -3 10 -14
9 -17 14 -8 11 10 -3 32 2 50 11 60 30 68 33 80 33 9 0 8 -3 -2 -10 -13 -8
-12 -10 3 -10 10 0 20 -7 23 -15 4 -8 10 -15 16 -15 5 0 17 -7 26 -16 15 -15
15 -16 -4 -10 -12 3 -34 0 -50 -8 -18 -10 -30 -12 -35 -5 -3 6 -11 4 -19 -6
-7 -9 -20 -13 -29 -10 -12 5 -13 3 -5 -5 11 -11 63 -3 114 17 8 3 24 7 35 8
11 1 58 7 105 13 47 7 103 13 125 15 36 3 35 4 -10 5 -27 1 -81 -3 -119 -8
-83 -12 -99 -6 -24 9 l53 10 -65 -3 c-46 -3 -58 -2 -40 5 23 8 22 8 -7 4 -19
-2 -36 1 -43 10 -9 11 -2 15 37 23 26 6 52 8 58 6 5 -3 1 2 -9 10 -19 15 -19
16 10 17 29 0 80 17 56 18 -27 2 -242 -49 -327 -78 l-90 -29 -46 43 c-25 23
-61 51 -80 60 -83 44 -212 57 -296 30z m150 -44 c5 0 6 -5 3 -10 -4 -5 2 -7
12 -4 43 11 109 -109 84 -153 -8 -14 -5 -22 14 -37 43 -33 29 -90 -31 -127
-20 -12 -34 -24 -31 -27 5 -6 67 27 79 42 11 13 -1 -33 -16 -63 -6 -14 -18
-22 -27 -19 -8 2 -21 -2 -28 -10 -8 -7 -8 -13 -2 -13 5 0 10 -9 10 -20 0 -15
-7 -20 -29 -20 -53 0 -91 12 -92 29 -1 14 -2 14 -6 -1 -6 -24 -52 -32 -73 -13
-10 9 -24 15 -31 13 -9 -2 -15 8 -17 27 -2 25 1 30 20 31 13 1 47 11 77 22 40
16 59 19 73 11 10 -6 27 -8 36 -6 14 4 13 5 -3 6 -11 0 -30 8 -42 16 -12 8
-23 11 -25 5 -2 -5 -14 -11 -28 -12 -14 -2 -31 -9 -39 -16 -7 -7 -21 -10 -30
-6 -9 3 -32 11 -51 16 -50 14 -100 55 -117 96 -38 91 29 195 142 222 41 10 52
16 39 20 -15 6 101 7 129 1z m600 -18 c-7 -2 -19 -2 -25 0 -7 3 -2 5 12 5 14
0 19 -2 13 -5z m-50 -10 c-7 -2 -19 -2 -25 0 -7 3 -2 5 12 5 14 0 19 -2 13 -5z
m-756 -319 c-3 -3 -12 -4 -19 -1 -8 3 -5 6 6 6 11 1 17 -2 13 -5z m53 -14 c18
-12 2 -12 -25 0 -13 6 -15 9 -5 9 8 0 22 -4 30 -9z m120 -120 c0 -5 -14 -10
-31 -10 -17 0 -28 4 -24 10 3 6 17 10 31 10 13 0 24 -4 24 -10z"/>
<path d="M6696 8362 c-3 -5 1 -9 9 -9 8 0 12 4 9 9 -3 4 -7 8 -9 8 -2 0 -6 -4
-9 -8z"/>
<path d="M7070 8100 c0 -5 5 -10 10 -10 6 0 10 5 10 10 0 6 -4 10 -10 10 -5 0
-10 -4 -10 -10z"/>
<path d="M6875 8079 c-4 -6 -5 -12 -2 -15 2 -3 7 2 10 11 7 17 1 20 -8 4z"/>
<path d="M6988 8083 c7 -3 16 -2 19 1 4 3 -2 6 -13 5 -11 0 -14 -3 -6 -6z"/>
<path d="M6865 8010 c-3 -5 -1 -10 4 -10 6 0 11 5 11 10 0 6 -2 10 -4 10 -3 0
-8 -4 -11 -10z"/>
<path d="M7795 8484 c69 -7 222 -8 212 -2 -7 4 -64 7 -127 6 -63 -1 -101 -3
-85 -4z"/>
<path d="M7690 8470 c20 -13 47 -13 55 0 4 6 -9 10 -32 10 -28 0 -34 -3 -23
-10z"/>
<path d="M8030 8477 c0 -2 14 -14 31 -26 18 -13 29 -19 25 -12 -5 7 2 10 21 7
49 -6 83 -18 78 -26 -3 -5 5 -6 17 -2 15 4 19 2 14 -7 -5 -8 -3 -12 5 -10 26
3 40 -1 34 -10 -3 -5 0 -13 5 -16 7 -5 5 -12 -7 -20 -14 -10 -15 -16 -5 -27 6
-8 8 -19 4 -23 -4 -5 -1 -4 7 0 11 6 13 4 8 -8 -4 -10 -2 -17 4 -17 7 0 9 10
5 26 -5 18 -3 24 5 18 7 -4 9 -3 5 4 -3 6 3 16 16 23 20 11 21 12 4 25 -10 7
-24 10 -32 7 -9 -3 -14 0 -12 8 4 16 -149 81 -174 73 -9 -3 -19 0 -23 6 -5 9
-35 15 -35 7z m262 -120 c-12 -6 -22 -14 -22 -19 0 -4 -4 -8 -10 -8 -18 0 -10
18 10 25 11 4 18 11 15 16 -4 5 2 6 11 2 16 -6 15 -8 -4 -16z"/>
<path d="M7848 8458 c-8 -4 4 -8 30 -8 23 0 42 2 42 4 0 8 -60 12 -72 4z"/>
<path d="M8005 8450 c-3 -5 1 -10 9 -10 9 0 16 5 16 10 0 6 -4 10 -9 10 -6 0
-13 -4 -16 -10z"/>
<path d="M5913 8389 c12 -28 23 -46 25 -41 4 12 -30 92 -39 92 -4 0 2 -23 14
-51z"/>
<path d="M7628 8433 c6 -2 18 -2 25 0 6 3 1 5 -13 5 -14 0 -19 -2 -12 -5z"/>
<path d="M8115 8420 c3 -5 8 -10 11 -10 2 0 4 5 4 10 0 6 -5 10 -11 10 -5 0
-7 -4 -4 -10z"/>
<path d="M7633 8413 c9 -2 23 -2 30 0 6 3 -1 5 -18 5 -16 0 -22 -2 -12 -5z"/>
<path d="M8076 8412 c-3 -4 4 -9 15 -9 23 -2 25 3 4 10 -8 4 -16 3 -19 -1z"/>
<path d="M5947 8389 c4 -13 8 -18 11 -10 2 7 -1 18 -6 23 -8 8 -9 4 -5 -13z"/>
<path d="M7808 8403 c6 -2 18 -2 25 0 6 3 1 5 -13 5 -14 0 -19 -2 -12 -5z"/>
<path d="M7658 8393 c6 -2 18 -2 25 0 6 3 1 5 -13 5 -14 0 -19 -2 -12 -5z"/>
<path d="M8020 8385 c7 -8 17 -15 22 -15 6 0 5 7 -2 15 -7 8 -17 15 -22 15 -6
0 -5 -7 2 -15z"/>
<path d="M7738 8383 c7 -3 16 -2 19 1 4 3 -2 6 -13 5 -11 0 -14 -3 -6 -6z"/>
<path d="M7840 8379 c0 -11 29 -19 68 -19 20 0 56 -5 79 -10 28 -7 50 -6 65 0
21 10 21 10 -5 5 -19 -4 -29 -1 -33 9 -3 8 -12 12 -19 10 -7 -3 -16 -1 -20 5
-3 6 -18 10 -33 10 l-27 -1 30 -8 c24 -6 17 -8 -30 -8 -45 0 -54 2 -35 8 23 8
22 8 -7 7 -18 -1 -33 -4 -33 -8z"/>
<path d="M7275 8350 c-4 -6 3 -10 14 -10 25 0 27 6 6 13 -8 4 -17 2 -20 -3z"/>
<path d="M5961 8334 c0 -11 3 -14 6 -6 3 7 2 16 -1 19 -3 4 -6 -2 -5 -13z"/>
<path d="M8309 8339 c-11 -8 -9 -9 6 -7 20 3 22 -2 10 -37 -5 -15 -5 -17 3 -6
9 12 13 10 23 -12 12 -27 29 -37 29 -17 0 6 -4 10 -10 10 -5 0 -10 7 -10 16 0
21 12 12 44 -34 33 -48 52 -106 31 -99 -8 4 -15 -4 -19 -19 -4 -13 -11 -24
-16 -24 -13 0 -13 17 0 25 17 10 11 21 -12 22 -13 1 -18 -1 -12 -5 6 -4 11
-16 11 -27 1 -11 4 -33 8 -50 6 -30 6 -30 -13 -10 -13 13 -15 22 -8 27 8 5 7
11 -2 20 -9 9 -12 9 -13 -2 0 -8 -5 -4 -11 10 -6 14 -10 29 -9 33 1 5 -3 6 -8
3 -11 -7 -24 22 -15 35 13 21 -7 48 -34 45 -36 -3 -67 30 -49 53 11 14 10 14
-6 2 -15 -12 -20 -11 -35 3 -10 9 -21 14 -24 10 -3 -3 -23 4 -44 15 -21 12
-48 21 -59 20 -14 0 -15 -2 -5 -6 62 -22 158 -72 173 -90 11 -14 24 -20 34
-16 10 4 14 2 10 -4 -4 -6 8 -30 26 -54 17 -24 41 -62 52 -84 28 -56 69 -88
58 -45 -8 29 6 90 20 90 7 0 18 4 25 9 17 11 -12 72 -70 148 -43 56 -58 66
-79 52z m51 -29 c0 -5 -4 -10 -10 -10 -5 0 -10 5 -10 10 0 6 5 10 10 10 6 0
10 -4 10 -10z m-55 -118 c-8 -9 -25 20 -18 31 3 5 10 2 15 -7 6 -10 7 -20 3
-24z"/>
<path d="M3977 8323 c-9 -17 -17 -88 -8 -73 5 8 11 30 14 48 5 31 3 40 -6 25z"/>
<path d="M5956 8295 c-3 -8 4 -34 14 -57 11 -24 20 -37 20 -30 0 7 -7 26 -15
42 -8 16 -12 36 -9 44 3 9 4 16 1 16 -3 0 -7 -7 -11 -15z"/>
<path d="M7317 8291 c-3 -13 -1 -18 9 -14 7 2 10 11 7 19 -7 19 -10 18 -16 -5z"/>
<path d="M7350 8300 c0 -6 7 -10 15 -10 8 0 15 2 15 4 0 2 -7 6 -15 10 -8 3
-15 1 -15 -4z"/>
<path d="M6013 8280 c3 -16 21 -14 25 2 3 10 2 10 -6 -1 -7 -9 -11 -10 -15 -2
-4 7 -5 8 -4 1z"/>
<path d="M3941 8230 c0 -8 4 -24 8 -34 7 -19 8 -18 14 4 3 13 4 26 2 29 -3 2
-5 -2 -6 -10 0 -8 -4 -6 -9 6 -5 13 -9 14 -9 5z"/>
<path d="M6046 8215 c4 -8 8 -15 10 -15 2 0 4 7 4 15 0 8 -4 15 -10 15 -5 0
-7 -7 -4 -15z"/>
<path d="M3920 8206 c0 -8 4 -17 9 -20 5 -4 7 3 4 14 -6 23 -13 26 -13 6z"/>
<path d="M3906 8138 c-9 -43 -2 -45 11 -3 6 19 8 35 3 35 -4 0 -10 -14 -14
-32z"/>
<path d="M6047 8139 c4 -13 8 -18 11 -10 2 7 -1 18 -6 23 -8 8 -9 4 -5 -13z"/>
<path d="M6076 8138 c13 -43 23 -68 28 -68 3 0 -2 20 -11 45 -15 45 -31 65
-17 23z"/>
<path d="M3932 8105 c0 -16 2 -22 5 -12 2 9 2 23 0 30 -3 6 -5 -1 -5 -18z"/>
<path d="M2104 8099 c-28 -5 -64 -14 -80 -20 -16 -6 -39 -13 -50 -15 -12 -1
-49 -16 -82 -33 -47 -24 -60 -35 -55 -48 6 -14 7 -14 14 4 9 24 111 71 117 54
2 -6 10 -11 17 -11 20 0 11 -34 -10 -38 -12 -3 -15 0 -10 9 6 8 4 10 -4 4 -7
-4 -25 -11 -39 -16 -24 -8 -23 -8 8 -4 34 4 35 4 10 -9 -14 -8 -28 -12 -32
-10 -3 2 -10 0 -13 -6 -4 -6 -16 -8 -28 -4 -19 6 -20 5 -9 -8 18 -22 -11 -47
-33 -28 -8 6 -19 9 -25 5 -5 -3 -10 -2 -10 4 0 5 5 13 10 16 6 4 8 11 5 16 -4
5 1 9 10 9 9 0 13 5 9 11 -4 8 -24 -6 -54 -37 -26 -27 -46 -52 -43 -56 2 -5 0
-8 -6 -8 -18 0 -65 -92 -63 -122 1 -16 -1 -27 -6 -24 -5 3 -6 -9 -3 -27 l5
-32 7 30 c4 17 7 46 8 65 1 23 4 31 10 22 11 -18 23 11 14 36 -3 9 -2 14 2 10
5 -5 13 2 20 15 6 12 17 21 23 20 6 -2 9 3 6 11 -7 18 28 16 39 -2 5 -7 13 -9
19 -6 7 4 8 2 4 -5 -4 -6 -11 -9 -16 -6 -5 3 -11 -4 -15 -15 -4 -11 -11 -17
-17 -14 -7 4 -8 2 -4 -4 4 -7 2 -12 -3 -12 -11 0 -15 15 -11 35 1 6 -2 7 -6 2
-12 -12 -16 -49 -4 -42 5 3 10 -1 10 -9 0 -20 -17 -30 -23 -14 -4 8 -6 7 -6
-3 -1 -9 -7 -19 -15 -22 -9 -4 -12 -19 -11 -46 1 -22 0 -39 -4 -37 -3 2 -7
-17 -8 -42 l-2 -47 13 49 c8 28 12 55 9 62 -2 7 3 25 12 41 15 27 15 27 10 3
-3 -15 3 -8 15 17 33 64 136 160 207 194 34 16 67 29 74 29 8 0 8 4 -1 15 -10
12 -10 15 4 15 9 0 16 7 16 16 0 12 -3 14 -13 6 -8 -7 -18 -6 -32 5 -13 10
-15 14 -5 12 18 -3 67 9 97 23 40 20 441 13 474 -8 5 -3 6 -11 3 -17 -5 -8 -3
-8 7 1 7 6 24 12 38 12 26 -1 26 -1 -4 -16 -16 -8 -21 -12 -10 -8 11 3 36 8
55 10 28 3 31 2 15 -5 -15 -8 -8 -8 24 -4 32 4 42 3 37 -5 -13 -21 7 -39 34
-31 24 7 24 7 -5 9 -16 1 -24 4 -17 7 8 3 41 0 75 -8 45 -9 56 -14 41 -20 -18
-7 -18 -8 3 -8 12 -1 30 -4 40 -7 15 -5 15 -4 3 5 -13 9 -13 11 0 12 50 3
-234 72 -395 94 -109 16 -309 18 -391 4z m-312 -151 c-19 -19 -15 -40 7 -33
11 3 22 1 26 -5 3 -5 1 -10 -5 -10 -6 0 -8 -5 -4 -11 4 -7 -3 -6 -17 2 -22 12
-28 14 -46 18 -7 1 37 51 46 51 3 0 0 -5 -7 -12z"/>
<path d="M8462 8098 c-18 -18 -14 -46 7 -58 30 -15 33 -13 26 23 -9 41 -18 50
-33 35z m23 -39 c11 -17 -1 -21 -15 -4 -8 9 -8 15 -2 15 6 0 14 -5 17 -11z"/>
<path d="M3891 8074 c0 -11 3 -14 6 -6 3 7 2 16 -1 19 -3 4 -6 -2 -5 -13z"/>
<path d="M2086 8071 c-3 -4 6 -6 19 -3 14 2 25 6 25 8 0 8 -39 4 -44 -5z"/>
<path d="M2155 8071 c-6 -5 -19 -11 -30 -14 -19 -4 -19 -5 1 -6 12 0 27 6 34
14 14 16 10 20 -5 6z"/>
<path d="M2298 8069 c-8 -6 1 -9 25 -9 20 0 37 2 37 4 0 9 -50 12 -62 5z"/>
<path d="M2440 8062 c-14 -2 -30 -8 -37 -14 -7 -5 -27 -9 -45 -7 -18 1 -64 1
-103 -1 -52 -2 -32 -5 80 -11 182 -10 211 -14 299 -34 38 -8 71 -13 74 -10 3
3 -10 8 -29 12 l-34 7 30 7 c18 5 3 6 -35 3 -63 -4 -64 -4 -35 10 l30 15 -30
-6 c-40 -9 -123 -6 -160 7 l-30 10 31 -4 c17 -3 35 -1 40 4 5 4 20 10 34 13
30 5 -44 4 -80 -1z"/>
<path d="M3921 8054 c0 -11 3 -14 6 -6 3 7 2 16 -1 19 -3 4 -6 -2 -5 -13z"/>
<path d="M2154 8039 c-3 -6 -20 -9 -38 -6 -17 2 -44 -2 -59 -10 -31 -15 -30
-31 0 -18 24 11 30 12 83 14 30 1 40 4 31 10 -11 7 -11 9 0 14 9 3 10 6 2 6
-6 1 -15 -4 -19 -10z"/>
<path d="M2508 8043 c6 -2 18 -2 25 0 6 3 1 5 -13 5 -14 0 -19 -2 -12 -5z"/>
<path d="M3882 8015 c0 -16 2 -22 5 -12 2 9 2 23 0 30 -3 6 -5 -1 -5 -18z"/>
<path d="M8450 7997 c28 -17 36 -72 18 -119 -8 -21 -7 -31 4 -41 12 -12 14 -8
16 32 1 25 6 47 12 49 5 2 10 21 10 43 0 35 -3 39 -24 39 -13 0 -33 3 -43 6
-10 3 -7 -1 7 -9z"/>
<path d="M2925 7990 c19 -8 19 -9 1 -9 -16 -1 -17 -4 -8 -13 10 -10 14 -10 21
0 5 9 17 11 35 6 40 -10 45 -27 5 -20 -29 5 -30 5 -11 -4 24 -10 72 -4 72 9 0
4 -27 15 -60 24 -64 18 -88 21 -55 7z"/>
<path d="M6430 7980 c-9 -6 -10 -10 -3 -10 6 0 15 5 18 10 8 12 4 12 -15 0z"/>
<path d="M2785 7959 c38 -10 71 -16 74 -13 2 2 -1 4 -9 4 -9 0 -9 4 -2 13 8 9
-5 12 -61 13 l-72 1 70 -18z"/>
<path d="M3871 7964 c0 -11 3 -14 6 -6 3 7 2 16 -1 19 -3 4 -6 -2 -5 -13z"/>
<path d="M8395 7970 c3 -5 8 -31 11 -57 3 -27 9 -69 14 -94 6 -29 6 -59 0 -80
-14 -47 -13 -112 1 -103 6 3 8 16 5 28 -2 11 -1 41 4 65 5 28 3 73 -5 123 -11
71 -11 79 3 76 9 -2 19 -14 23 -28 l7 -25 1 27 c1 14 -5 29 -11 31 -9 4 -8 6
2 6 8 1 0 10 -18 21 -36 22 -46 25 -37 10z"/>
<path d="M2875 7960 c-3 -6 1 -7 9 -4 18 7 21 14 7 14 -6 0 -13 -4 -16 -10z"/>
<path d="M1825 7951 c-3 -5 -2 -12 3 -15 5 -3 9 1 9 9 0 17 -3 19 -12 6z"/>
<path d="M3050 7949 c0 -5 7 -9 16 -9 8 0 13 -4 10 -9 -3 -4 6 -6 21 -3 21 4
25 2 20 -12 -4 -9 -2 -16 2 -16 5 0 11 6 14 14 4 10 -8 19 -39 30 -24 8 -44
11 -44 5z"/>
<path d="M2885 7940 c-16 -7 -17 -9 -3 -9 9 -1 20 4 23 9 7 11 7 11 -20 0z"/>
<path d="M6354 7934 c-18 -14 -18 -15 4 -4 12 6 22 13 22 15 0 8 -5 6 -26 -11z"/>
<path d="M6502 7941 c-11 -6 -10 -10 4 -15 9 -4 22 -2 28 4 8 8 6 9 -8 4 -13
-5 -17 -4 -12 4 8 14 6 15 -12 3z"/>
<path d="M2920 7930 c-11 -8 -7 -9 15 -4 23 4 26 3 15 -5 -13 -9 -13 -11 2
-11 9 0 25 -3 35 -6 15 -5 15 -4 3 5 -13 9 -13 11 0 12 8 0 4 5 -10 9 -35 11
-43 11 -60 0z"/>
<path d="M3030 7930 c8 -5 20 -10 25 -10 6 0 3 5 -5 10 -8 5 -19 10 -25 10 -5
0 -3 -5 5 -10z"/>
<path d="M3861 7914 c0 -11 3 -14 6 -6 3 7 2 16 -1 19 -3 4 -6 -2 -5 -13z"/>
<path d="M3026 7901 c-17 -6 -17 -8 -4 -14 10 -3 19 0 22 9 3 8 4 14 3 13 -1
0 -11 -4 -21 -8z"/>
<path d="M3177 7903 c-4 -3 -7 -12 -7 -20 0 -16 26 -17 36 -1 5 7 3 8 -6 3
-10 -6 -12 -4 -7 8 6 17 -4 23 -16 10z"/>
<path d="M3221 7892 c3 -21 -3 -32 -18 -32 -15 0 -15 -2 -4 -9 11 -7 20 -3 33
11 22 25 22 24 3 32 -8 3 -14 2 -14 -2z"/>
<path d="M6279 7898 c-6 -21 -5 -37 2 -32 5 3 7 9 4 14 -3 4 1 11 7 13 10 4
10 6 1 6 -7 1 -13 0 -14 -1z"/>
<path d="M6437 7889 c7 -7 15 -10 18 -7 3 3 -2 9 -12 12 -14 6 -15 5 -6 -5z"/>
<path d="M3055 7879 c8 -11 55 -12 55 -1 0 5 -14 9 -30 10 -17 0 -28 -4 -25
-9z"/>
<path d="M3117 7875 c-8 -20 -4 -29 11 -24 5 2 6 13 2 23 -6 19 -7 19 -13 1z"/>
<path d="M1756 7864 c-5 -14 -4 -15 9 -4 17 14 19 20 6 20 -5 0 -12 -7 -15
-16z"/>
<path d="M3275 7851 c-3 -12 -12 -21 -18 -21 -7 0 -6 -4 3 -10 13 -9 13 -10 0
-11 -8 0 4 -9 28 -19 39 -18 78 -18 67 0 -6 10 44 32 57 24 7 -4 8 -2 4 5 -5
7 -16 9 -28 5 -15 -4 -18 -3 -13 6 5 9 4 11 -3 6 -7 -4 -12 -3 -12 2 0 6 -11
13 -24 16 -13 3 -31 9 -39 12 -10 3 -18 -2 -22 -15z m85 -26 c9 -10 6 -15 -10
-20 -11 -3 -18 -11 -15 -16 8 -12 3 -11 -35 4 -32 14 -35 20 -19 49 8 14 14
15 38 7 17 -6 35 -17 41 -24z"/>
<path d="M3285 7831 c-8 -14 30 -32 50 -25 14 6 14 8 -2 20 -21 16 -40 18 -48
5z m40 -11 c8 -13 -5 -13 -25 0 -13 8 -13 10 2 10 9 0 20 -4 23 -10z"/>
<path d="M6230 7866 c0 -2 7 -7 16 -10 8 -3 12 -2 9 4 -6 10 -25 14 -25 6z"/>
<path d="M8495 7785 c-5 -44 -10 -94 -10 -112 0 -17 -3 -35 -7 -39 -5 -4 -8
-21 -8 -37 0 -29 -1 -29 -18 -14 -10 10 -22 14 -25 11 -4 -4 -10 2 -14 12 -5
13 -11 -7 -19 -61 -7 -44 -11 -81 -9 -84 3 -2 7 15 11 37 4 24 11 39 16 36 6
-4 7 2 3 15 -4 15 -2 21 8 21 8 0 17 -9 20 -20 3 -13 11 -18 20 -14 16 6 42
127 31 145 -3 5 -1 16 6 24 6 8 10 42 8 87 l-3 73 -10 -80z"/>
<path d="M8462 7810 c0 -14 2 -19 5 -12 2 6 2 18 0 25 -3 6 -5 1 -5 -13z"/>
<path d="M3449 7796 c13 -7 20 -15 15 -18 -5 -3 -4 -3 3 -2 20 5 73 -17 70
-28 -1 -6 5 -13 13 -15 13 -4 13 -3 0 6 -13 10 -13 11 0 12 8 0 -12 13 -45 29
-61 29 -99 40 -56 16z"/>
<path d="M3410 7784 c0 -3 6 -12 14 -20 13 -12 15 -12 13 6 -1 17 -27 31 -27
14z"/>
<path d="M3831 7754 c0 -11 3 -14 6 -6 3 7 2 16 -1 19 -3 4 -6 -2 -5 -13z"/>
<path d="M3425 7731 c33 -16 63 -30 66 -30 3 -1 5 11 4 27 0 15 -6 27 -13 26
-33 -3 -35 -6 -12 -19 32 -18 8 -19 -28 -1 -15 7 -38 16 -52 20 -14 3 2 -7 35
-23z"/>
<path d="M8461 7744 c0 -11 3 -14 6 -6 3 7 2 16 -1 19 -3 4 -6 -2 -5 -13z"/>
<path d="M3609 7726 c18 -10 20 -15 10 -20 -8 -3 -4 -3 8 -1 12 3 24 1 28 -5
3 -5 12 -10 18 -10 7 0 -6 12 -28 25 -22 14 -44 25 -50 25 -5 -1 1 -7 14 -14z"/>
<path d="M1621 7657 c-12 -71 -13 -216 -2 -292 4 -29 6 16 4 105 -3 85 -1 150
4 144 4 -7 8 13 9 47 1 32 0 59 -1 59 -2 0 -8 -28 -14 -63z"/>
<path d="M3510 7699 c0 -5 5 -7 10 -4 6 3 10 8 10 11 0 2 -4 4 -10 4 -5 0 -10
-5 -10 -11z"/>
<path d="M3531 7686 c10 -9 69 -36 69 -32 0 6 -55 36 -66 36 -4 0 -5 -2 -3 -4z"/>
<path d="M3679 7673 c-13 -16 -12 -17 4 -4 9 7 17 15 17 17 0 8 -8 3 -21 -13z"/>
<path d="M3722 7666 c8 -7 25 -17 38 -20 20 -6 19 -4 -8 13 -37 24 -49 27 -30
7z"/>
<path d="M8440 7654 c0 -16 5 -36 10 -44 6 -10 7 -2 3 25 -7 49 -13 58 -13 19z"/>
<path d="M3633 7645 c0 -8 4 -12 9 -9 5 3 6 10 3 15 -9 13 -12 11 -12 -6z"/>
<path d="M1653 7522 c-1 -42 -6 -78 -11 -80 -5 -1 -5 -24 -1 -50 5 -29 3 -59
-4 -80 -9 -26 -9 -35 2 -41 7 -5 11 -13 7 -19 -7 -12 4 -75 13 -67 10 10 8 29
-4 37 -6 5 -4 19 7 40 15 27 16 44 9 98 -5 40 -9 52 -10 31 0 -19 -4 -31 -7
-28 -4 3 -1 48 5 99 7 53 9 102 4 115 -5 15 -9 -2 -10 -55z m8 -245 c-16 -16
-26 20 -10 40 13 15 14 14 17 -7 2 -12 -1 -27 -7 -33z"/>
<path d="M8413 7507 c-3 -5 -6 -30 -8 -55 -2 -26 -1 -38 2 -27 5 17 8 15 19
-15 13 -32 14 -32 8 -5 -15 78 -14 101 7 102 16 2 19 -2 14 -15 -3 -9 -8 -30
-11 -47 -3 -19 1 -14 11 15 8 25 15 48 15 52 0 10 -50 6 -57 -5z m4 -49 c-3
-8 -6 -5 -6 6 -1 11 2 17 5 13 3 -3 4 -12 1 -19z"/>
<path d="M8371 7434 c0 -11 3 -14 6 -6 3 7 2 16 -1 19 -3 4 -6 -2 -5 -13z"/>
<path d="M8358 7385 c-3 -14 -1 -25 6 -25 6 0 4 -5 -5 -10 -9 -5 -20 -22 -23
-37 -4 -16 -9 -36 -13 -47 -3 -13 -1 -16 7 -11 9 5 10 1 5 -16 -7 -23 -6 -23
11 -6 16 15 17 19 4 27 -8 5 -11 13 -6 17 4 4 14 -1 22 -11 16 -23 19 -40 4
-31 -5 3 -10 0 -10 -8 0 -25 -31 -30 -37 -6 -5 16 -13 2 -34 -57 -16 -43 -29
-80 -29 -82 0 -2 11 6 24 19 14 13 30 25 35 25 6 1 15 2 20 3 15 2 21 32 11
52 -7 13 -7 19 0 19 5 0 10 -6 11 -12 0 -7 7 2 15 20 10 23 11 38 5 51 -6 10
-7 22 -3 26 4 5 1 5 -5 1 -7 -4 -13 -2 -13 4 0 6 -4 8 -10 5 -13 -8 -13 5 0
25 5 8 10 11 10 5 1 -5 5 0 11 13 5 13 12 21 16 19 5 -3 9 7 10 21 l1 27 -14
-25 c-13 -22 -14 -22 -9 -3 3 12 2 24 -3 27 -6 3 -12 -5 -14 -19z m-24 -200
c16 -24 16 -27 0 -43 -16 -16 -17 -15 -11 13 6 30 6 29 -9 -4 -20 -44 -29 -34
-10 11 9 20 12 38 9 42 -4 3 -4 6 -1 6 3 0 13 -11 22 -25z"/>
<path d="M8411 7390 c0 -8 4 -22 9 -30 12 -18 12 -2 0 25 -6 13 -9 15 -9 5z"/>
<path d="M8400 7305 c-7 -20 -10 -39 -7 -41 3 -3 10 11 17 31 7 20 10 39 7 41
-3 3 -10 -11 -17 -31z"/>
<path d="M8381 7314 c0 -11 3 -14 6 -6 3 7 2 16 -1 19 -3 4 -6 -2 -5 -13z"/>
<path d="M1676 7233 c4 -16 11 -35 16 -43 7 -11 8 -8 4 10 -3 14 -6 33 -6 43
0 9 -5 17 -10 17 -6 0 -8 -11 -4 -27z"/>
<path d="M1664 7148 c4 -15 12 -40 18 -55 12 -28 15 -38 17 -60 0 -7 6 -13 12
-13 6 0 9 7 6 14 -4 10 -1 13 7 10 8 -3 12 -14 9 -25 -3 -10 -1 -19 5 -19 12
0 22 -37 15 -57 -5 -12 -8 -12 -15 -1 -8 10 -9 10 -5 -2 19 -60 61 -150 69
-150 6 0 5 7 -2 15 -10 12 -10 19 -2 27 8 8 13 4 18 -16 3 -14 10 -26 16 -26
5 0 7 4 4 9 -3 4 -10 21 -16 37 -11 28 -12 28 -26 10 -16 -23 -19 -14 -4 14 7
14 6 29 -4 52 -11 24 -15 28 -15 13 0 -11 3 -27 8 -35 6 -8 7 -18 4 -24 -10
-15 -30 57 -22 75 9 17 -26 145 -44 164 -6 6 -7 2 -2 -12 4 -14 2 -23 -4 -23
-6 0 -11 12 -11 26 0 14 -4 22 -10 19 -6 -4 -8 7 -5 27 3 18 2 27 -1 19 -5
-11 -8 -11 -16 0 -7 10 -8 6 -4 -13z"/>
<path d="M1701 7154 c0 -11 3 -14 6 -6 3 7 2 16 -1 19 -3 4 -6 -2 -5 -13z"/>
<path d="M8297 7092 c-11 -12 -16 -31 -14 -53 2 -19 -3 -49 -11 -68 -7 -18
-11 -35 -9 -37 7 -7 31 58 30 78 -1 10 2 16 6 13 9 -5 44 76 36 83 -3 3 -5 -1
-5 -9 0 -11 -2 -11 -8 -1 -7 10 -12 8 -25 -6z m16 -22 c-6 -22 -23 -38 -23
-21 0 17 12 41 20 41 5 0 6 -9 3 -20z"/>
<path d="M8246 7054 c-8 -22 -4 -25 11 -9 7 8 9 16 4 19 -5 3 -12 -1 -15 -10z"/>
<path d="M8212 6968 c-12 -27 -18 -57 -15 -65 4 -10 2 -14 -4 -10 -17 11 -23
-19 -8 -40 8 -10 15 -13 15 -7 0 5 -5 15 -11 21 -9 9 -7 12 10 10 25 -2 27
-23 4 -49 -9 -10 -11 -18 -5 -18 14 0 44 55 35 64 -4 3 -2 6 4 6 6 0 13 9 16
20 3 13 1 18 -6 13 -7 -4 -8 0 -4 11 4 10 2 27 -4 38 -12 22 -3 40 10 19 6 -9
9 -6 9 11 0 41 -24 28 -46 -24z m24 -49 c-1 -23 -7 -33 -20 -35 -14 -2 -16 0
-7 9 6 6 11 18 11 27 0 13 -1 13 -10 0 -13 -20 -13 -4 1 21 14 27 27 16 25
-22z"/>
<path d="M1715 6990 c9 -30 13 -35 21 -27 3 3 -2 16 -11 29 l-17 23 7 -25z"/>
<path d="M8146 6817 c-4 -18 -4 -18 15 -1 23 21 23 21 5 21 -8 0 -17 -9 -20
-20z"/>
<path d="M8160 6785 c0 -7 7 -15 14 -18 11 -4 13 -1 9 10 -5 12 -3 14 8 8 8
-5 11 -4 6 0 -13 14 -37 14 -37 0z"/>
<path d="M8140 6779 c0 -5 -4 -8 -8 -5 -10 6 -37 -63 -33 -83 1 -8 -2 -10 -9
-6 -9 6 -9 2 0 -14 6 -12 16 -19 22 -15 6 4 9 3 6 -2 -20 -44 -33 -64 -40 -64
-5 0 -6 -4 -3 -10 8 -12 -9 -43 -21 -39 -5 1 -13 -11 -18 -27 -13 -42 -47
-107 -64 -120 -12 -9 -13 -13 -2 -19 9 -5 11 -4 6 3 -4 7 -3 12 2 12 14 0 76
111 74 133 0 9 3 15 8 12 5 -3 25 25 43 62 32 65 33 69 16 85 -15 14 -16 21
-6 42 12 27 33 37 24 12 -3 -8 2 -20 11 -28 15 -11 15 -11 6 2 -6 8 -10 30 -8
48 1 17 0 32 -2 32 -2 0 -4 -5 -4 -11z"/>
<path d="M1844 6733 c-1 -16 1 -22 3 -14 5 11 7 11 14 0 5 -8 9 -9 9 -3 0 5
-6 18 -12 27 -12 15 -13 14 -14 -10z"/>
<path d="M8165 6739 c-4 -6 -5 -12 -2 -15 2 -3 7 2 10 11 7 17 1 20 -8 4z"/>
<path d="M8120 6702 c0 -12 19 -26 26 -19 2 2 -2 10 -11 17 -9 8 -15 8 -15 2z"/>
<path d="M1875 6691 c3 -6 -1 -14 -10 -18 -13 -8 -12 -14 6 -47 11 -22 27 -46
35 -54 13 -13 14 -11 10 14 -5 26 -5 26 6 -3 6 -18 15 -33 19 -33 5 0 9 2 9 4
0 10 -71 146 -76 146 -3 0 -3 -4 1 -9z m21 -63 c4 -33 4 -33 -12 -10 -9 13
-13 30 -10 39 9 22 18 10 22 -29z"/>
<path d="M8063 6651 c-8 -12 -8 -22 -1 -32 8 -11 9 -11 5 2 -3 9 0 22 6 28 6
6 9 13 6 15 -3 3 -10 -3 -16 -13z"/>
<path d="M1916 6535 c3 -8 11 -12 16 -9 6 4 8 1 6 -7 -3 -8 3 -31 14 -52 16
-31 22 -36 33 -27 12 10 17 7 26 -14 7 -14 16 -26 21 -26 9 0 -14 42 -41 74
-9 10 -15 20 -13 22 7 12 0 15 -13 4 -17 -14 -21 0 -4 17 8 8 8 13 0 17 -6 4
-11 5 -11 1 0 -3 -9 -1 -20 5 -16 9 -18 8 -14 -5z m61 -42 c-4 -3 -2 -12 5
-20 8 -10 8 -17 1 -24 -8 -8 -13 -5 -18 10 -6 20 0 41 12 41 4 0 3 -3 0 -7z"/>
<path d="M8005 6530 c3 -5 8 -10 11 -10 2 0 4 5 4 10 0 6 -5 10 -11 10 -5 0
-7 -4 -4 -10z"/>
<path d="M7975 6489 c-4 -6 -5 -12 -2 -15 2 -3 7 2 10 11 7 17 1 20 -8 4z"/>
<path d="M1987 6424 c-8 -8 24 -64 35 -64 11 0 10 2 -8 38 -17 34 -17 35 -27
26z"/>
<path d="M2033 6362 c-8 -14 -6 -26 12 -55 29 -49 42 -61 21 -20 -18 37 -20
47 -7 38 12 -7 5 35 -7 47 -4 4 -13 -1 -19 -10z m22 -11 c3 -5 1 -12 -5 -16
-5 -3 -10 1 -10 9 0 18 6 21 15 7z"/>
<path d="M2075 6310 c-4 -6 -3 -16 3 -22 13 -13 23 4 13 21 -7 10 -10 10 -16
1z"/>
<path d="M7866 6293 c-6 -14 -5 -15 5 -6 7 7 10 15 7 18 -3 3 -9 -2 -12 -12z"/>
<path d="M2518 6293 c7 -3 16 -2 19 1 4 3 -2 6 -13 5 -11 0 -14 -3 -6 -6z"/>
<path d="M2478 6283 c7 -3 16 -2 19 1 4 3 -2 6 -13 5 -11 0 -14 -3 -6 -6z"/>
<path d="M2103 6265 c1 -11 -3 -19 -10 -18 -7 2 -10 -4 -7 -12 4 -8 9 -15 14
-15 4 0 12 -10 18 -22 7 -16 11 -18 11 -7 1 12 8 15 29 12 25 -3 26 -3 5 6
-13 6 -23 14 -23 18 0 4 -9 19 -19 33 -17 22 -19 22 -18 5z m27 -49 c0 -5 -7
-3 -15 4 -8 7 -12 17 -9 22 7 10 24 -9 24 -26z"/>
<path d="M8028 6233 c7 -3 16 -2 19 1 4 3 -2 6 -13 5 -11 0 -14 -3 -6 -6z"/>
<path d="M2478 6213 c7 -3 16 -2 19 1 4 3 -2 6 -13 5 -11 0 -14 -3 -6 -6z"/>
<path d="M8165 6195 c22 -8 49 -13 60 -13 11 0 -2 6 -30 14 -63 17 -84 16 -30
-1z"/>
<path d="M2370 6189 c0 -5 5 -7 10 -4 6 3 10 8 10 11 0 2 -4 4 -10 4 -5 0 -10
-5 -10 -11z"/>
<path d="M2055 6176 l-40 -12 53 0 c29 0 49 2 43 4 -6 2 -9 8 -5 13 7 11 -1
11 -51 -5z"/>
<path d="M2136 6173 c-6 -14 -5 -15 5 -6 7 7 10 15 7 18 -3 3 -9 -2 -12 -12z"/>
<path d="M7779 6153 c-13 -16 -12 -17 4 -4 9 7 17 15 17 17 0 8 -8 3 -21 -13z"/>
<path d="M8285 6160 c3 -5 15 -10 26 -10 11 0 18 -4 15 -9 -4 -5 4 -7 16 -3
20 5 19 7 -12 18 -44 16 -53 17 -45 4z"/>
<path d="M1885 6123 c-99 -32 -107 -37 -90 -49 18 -14 18 -14 -2 -14 -12 0
-24 4 -28 9 -6 11 -95 -18 -95 -31 0 -4 -7 -4 -17 -1 -12 5 -14 3 -8 -7 6 -10
4 -12 -9 -7 -10 4 -15 3 -11 -4 4 -5 16 -7 27 -3 15 4 18 3 13 -7 -5 -7 2 -5
16 4 15 11 42 17 74 17 l50 -1 -30 -14 c-39 -18 -31 -18 25 -1 27 9 36 15 23
15 -12 1 -25 6 -28 11 -8 12 6 13 38 1 18 -7 41 -4 87 13 44 16 58 25 45 29
-22 9 -27 9 -21 -1 7 -12 -89 -39 -110 -31 -18 7 -18 8 -1 8 11 1 30 10 44 21
14 11 31 20 37 20 6 -1 0 -7 -14 -15 -17 -10 -20 -14 -9 -15 20 0 42 24 31 35
-4 4 9 4 28 0 19 -4 37 -11 38 -16 2 -5 11 -9 20 -9 14 0 14 2 3 9 -11 7 -9
10 8 16 13 4 20 9 18 12 -3 2 -14 0 -24 -5 -12 -6 -32 -5 -58 3 l-40 12 38 8
c20 4 40 11 43 16 7 12 16 14 -111 -28z m8 -15 c-18 -6 -33 -17 -33 -24 0 -15
-41 -19 -54 -7 -8 8 78 42 104 41 8 0 0 -5 -17 -10z m-129 -54 c3 -8 2 -12 -4
-9 -6 3 -10 10 -10 16 0 14 7 11 14 -7z m-27 -10 c-3 -3 -12 -4 -19 -1 -8 3
-5 6 6 6 11 1 17 -2 13 -5z m-37 -8 c0 -2 -7 -7 -16 -10 -8 -3 -12 -2 -9 4 6
10 25 14 25 6z"/>
<path d="M2216 6151 c-3 -4 6 -6 19 -3 14 2 25 6 25 8 0 8 -39 4 -44 -5z"/>
<path d="M2140 6136 c0 -2 9 -6 20 -9 11 -3 18 -1 14 4 -5 9 -34 13 -34 5z"/>
<path d="M8378 6133 c7 -3 16 -2 19 1 4 3 -2 6 -13 5 -11 0 -14 -3 -6 -6z"/>
<path d="M1988 6123 c7 -3 16 -2 19 1 4 3 -2 6 -13 5 -11 0 -14 -3 -6 -6z"/>
<path d="M8404 6119 c-3 -6 -22 -9 -40 -7 -19 2 -30 0 -26 -4 4 -4 44 -10 87
-12 44 -3 91 -7 105 -10 14 -4 1 3 -29 14 -38 14 -58 17 -71 10 -28 -15 -38
-11 -16 5 11 8 15 15 9 15 -7 0 -15 -5 -19 -11z"/>
<path d="M8148 6113 c6 -2 18 -2 25 0 6 3 1 5 -13 5 -14 0 -19 -2 -12 -5z"/>
<path d="M2040 6100 c-18 -12 -2 -12 25 0 13 6 15 9 5 9 -8 0 -22 -4 -30 -9z"/>
<path d="M2209 6103 c-8 -48 1 -78 15 -54 4 5 2 13 -4 16 -6 4 -8 15 -5 26 4
10 4 19 1 19 -3 0 -7 -3 -7 -7z"/>
<path d="M8248 6083 c7 -3 16 -2 19 1 4 3 -2 6 -13 5 -11 0 -14 -3 -6 -6z"/>
<path d="M8462 6077 c18 -19 38 -22 38 -7 0 6 -4 10 -9 10 -5 0 -18 3 -28 7
-17 6 -17 6 -1 -10z"/>
<path d="M8564 6058 c1 -15 8 -24 21 -26 20 -3 20 -3 1 13 -14 11 -16 15 -5
15 20 -1 68 -29 49 -30 -13 0 -13 -1 0 -10 13 -8 12 -10 -2 -10 -10 0 -18 -4
-18 -9 0 -11 -76 -6 -93 6 -7 5 -24 14 -38 20 -21 9 -26 8 -26 -3 0 -8 6 -13
13 -10 7 3 14 2 16 -2 2 -4 30 -18 63 -30 33 -13 82 -32 109 -43 27 -11 51
-17 54 -14 3 3 -1 5 -9 5 -12 0 -12 2 0 9 24 15 22 39 -2 33 -20 -5 -20 -6 -1
-13 12 -6 5 -7 -23 -5 -23 2 -50 9 -60 15 -16 9 -14 10 12 11 20 0 26 3 17 9
-15 9 -3 22 33 35 16 6 7 12 -45 32 -36 13 -66 24 -66 24 -1 0 -1 -10 0 -22z"/>
<path d="M2240 6059 c0 -3 11 -20 25 -39 14 -19 25 -30 25 -24 -1 10 -50 73
-50 63z"/>
<path d="M8385 6048 c-19 -8 -19 -8 2 -4 12 2 24 -2 27 -10 3 -8 10 -14 15
-14 13 0 3 27 -12 33 -7 2 -21 0 -32 -5z"/>
<path d="M8709 6021 c11 -7 11 -9 0 -13 -10 -3 -10 -6 -1 -12 7 -4 12 -3 12 2
0 15 38 2 44 -14 6 -16 26 -19 26 -4 0 5 -18 19 -40 30 -39 20 -67 28 -41 11z"/>
<path d="M1580 6010 c-8 -5 -10 -10 -5 -10 6 0 17 5 25 10 8 5 11 10 5 10 -5
0 -17 -5 -25 -10z"/>
<path d="M1520 5985 c-14 -8 -20 -14 -15 -14 6 0 21 6 35 14 14 8 21 14 15 14
-5 0 -21 -6 -35 -14z"/>
<path d="M1552 5972 c-38 -19 -41 -23 -17 -18 28 5 28 5 8 -6 -13 -6 -23 -17
-23 -23 0 -21 -26 -25 -49 -8 -12 8 -25 13 -28 10 -2 -3 8 -12 24 -20 24 -13
32 -13 53 -1 14 7 21 14 15 14 -26 1 24 20 55 20 28 0 32 3 20 11 -12 9 -11
10 6 6 15 -3 20 1 20 17 0 29 -25 28 -84 -2z m50 1 c-12 -2 -20 -9 -17 -14 4
-5 1 -9 -4 -9 -12 0 -14 13 -4 23 3 4 16 6 27 6 19 -2 19 -2 -2 -6z"/>
<path d="M1702 5990 c-12 -5 -30 -7 -40 -4 -14 5 -15 4 -2 -5 12 -9 13 -11 1
-11 -8 0 -12 -2 -9 -5 3 -3 25 3 49 14 44 19 45 28 1 11z"/>
<path d="M2255 5976 c10 -14 19 -26 22 -26 7 0 -17 39 -28 46 -6 3 -3 -5 6
-20z"/>
<path d="M8812 5976 c10 -7 14 -16 10 -21 -4 -4 3 -4 15 -1 12 4 24 3 27 -3 3
-5 -6 -12 -19 -15 -14 -4 -23 -11 -20 -15 9 -15 -54 -24 -71 -10 -8 6 -17 9
-21 6 -3 -4 9 -13 28 -21 19 -8 35 -10 37 -5 2 5 18 9 35 10 18 0 26 3 20 6
-21 8 -15 20 12 27 18 5 44 -3 86 -23 43 -21 55 -31 42 -34 -10 -3 0 -5 22 -6
26 -1 35 -4 27 -10 -11 -7 -10 -9 3 -14 9 -4 13 -3 10 3 -11 18 7 11 42 -16
20 -15 31 -30 26 -37 -4 -7 0 -7 10 1 13 12 21 11 46 -4 16 -10 28 -21 25 -26
-3 -4 1 -5 9 -2 8 3 18 0 22 -6 4 -6 18 -15 31 -20 13 -5 24 -15 24 -22 0 -10
-2 -10 -9 1 -5 8 -11 9 -15 3 -3 -5 1 -13 9 -16 13 -4 13 -9 3 -25 -7 -11 -15
-18 -19 -15 -4 2 -10 0 -14 -6 -8 -14 -26 -13 -23 1 2 6 -3 14 -9 16 -29 11
-10 -18 30 -45 61 -42 102 -78 175 -152 35 -36 68 -64 74 -62 6 2 8 -4 5 -12
-7 -18 9 -31 18 -16 4 6 0 19 -9 29 -9 10 -13 20 -10 24 3 3 1 14 -6 24 -10
16 -11 16 -7 -4 3 -13 2 -25 -3 -28 -10 -6 -22 24 -14 37 3 5 -4 17 -16 25
l-22 16 31 20 c18 11 35 16 39 13 3 -4 0 -11 -7 -15 -11 -7 -11 -10 0 -15 8
-3 3 -4 -11 -2 l-25 5 25 -19 c14 -11 30 -20 35 -20 6 0 4 4 -4 9 -7 5 -10 14
-7 20 4 6 12 8 18 5 7 -4 8 -2 4 4 -5 8 -2 10 8 6 9 -3 13 -11 9 -18 -3 -6 -2
-8 2 -3 9 8 45 -20 45 -36 0 -6 -10 -2 -22 9 -13 10 -3 -3 21 -29 l45 -46 -20
-23 c-10 -12 -12 -18 -4 -12 8 6 21 9 28 8 6 -1 16 -2 22 -3 5 0 9 -4 9 -8 -3
-19 2 -31 16 -37 37 -14 -70 139 -163 233 -36 36 -125 101 -137 100 -5 0 -4
-3 3 -6 10 -4 9 -9 -4 -24 -16 -18 -16 -19 -1 -13 9 3 17 10 17 16 0 5 5 6 10
3 8 -5 7 -12 -2 -23 -10 -14 -10 -15 2 -4 8 6 18 12 22 12 11 0 6 -23 -7 -32
-6 -5 -6 -8 2 -8 6 0 15 5 18 10 3 6 11 10 17 10 6 0 2 -10 -10 -23 -12 -13
-22 -27 -22 -33 0 -5 4 -3 9 5 6 9 11 10 15 2 4 -5 -6 -17 -22 -25 -27 -14
-31 -14 -47 4 -16 18 -17 20 -2 20 10 0 17 -4 17 -10 0 -5 5 -10 11 -10 8 0 8
4 0 14 -7 8 -8 16 -4 18 4 3 3 3 -4 2 -7 -2 -19 4 -28 12 -8 9 -15 12 -15 8 0
-3 -6 -3 -13 2 -7 5 -4 1 6 -9 11 -10 17 -20 13 -24 -8 -8 -90 75 -92 95 -2 7
6 22 17 33 16 16 23 18 35 8 8 -6 17 -9 21 -6 3 4 13 1 22 -6 14 -10 14 -10 3
5 -8 10 -20 14 -30 11 -9 -3 -14 -3 -10 2 9 10 -18 31 -122 92 -132 77 -446
227 -398 189z m498 -266 c0 -5 -5 -10 -11 -10 -5 0 -7 5 -4 10 3 6 8 10 11 10
2 0 4 -4 4 -10z m-46 -71 c-3 -5 -10 -7 -15 -3 -5 3 -7 10 -3 15 3 5 10 7 15
3 5 -3 7 -10 3 -15z m210 -61 c-5 -8 -1 -9 12 -4 18 7 18 6 2 -10 -20 -20 -45
-10 -27 12 14 17 23 19 13 2z m-29 -88 c11 -12 13 -20 6 -20 -6 0 -14 7 -17
15 -4 8 -10 12 -15 9 -5 -3 -9 0 -9 5 0 17 15 13 35 -9z m170 -50 c10 -11 16
-20 13 -20 -3 0 -13 9 -23 20 -10 11 -16 20 -13 20 3 0 13 -9 23 -20z m39 -48
c3 -5 -1 -9 -9 -9 -8 0 -12 4 -9 9 3 4 7 8 9 8 2 0 6 -4 9 -8z"/>
<path d="M2300 5971 c0 -6 4 -13 10 -16 6 -3 7 1 4 9 -7 18 -14 21 -14 7z"/>
<path d="M1349 5907 c-57 -28 -98 -52 -91 -55 10 -3 8 -8 -5 -19 -17 -13 -16
-13 5 -3 12 6 20 15 17 19 -8 14 18 19 40 9 18 -8 18 -8 -3 -4 -13 2 -19 0
-16 -6 3 -5 17 -7 29 -4 13 3 26 2 29 -3 7 -11 -22 -23 -36 -14 -7 3 -8 1 -4
-5 4 -7 3 -12 -3 -12 -5 0 -12 4 -16 10 -3 5 -13 6 -21 3 -12 -5 -13 -7 -3
-14 27 -16 0 -20 -31 -4 -30 16 -31 17 -13 31 10 9 -1 5 -24 -7 -23 -12 -40
-26 -37 -30 2 -4 -4 -7 -13 -6 -25 1 -175 -102 -166 -116 4 -6 1 -8 -8 -5 -8
3 -19 0 -26 -7 -8 -9 -7 -16 8 -29 18 -15 21 -15 41 4 12 11 27 20 32 20 6 0
-5 -14 -24 -30 l-35 -29 -25 24 -25 23 -53 -49 c-29 -27 -49 -49 -43 -49 5 0
13 5 16 10 4 6 10 8 15 5 5 -3 16 7 24 22 l16 28 -4 -28 c-3 -15 -1 -25 5 -22
5 4 9 2 9 -4 0 -14 -35 -32 -45 -23 -3 4 -5 0 -3 -8 2 -10 -6 -15 -24 -15 -31
-1 -38 11 -10 18 16 4 16 5 0 6 -10 0 -24 -11 -32 -26 -8 -16 -18 -27 -23 -25
-4 1 -9 -2 -9 -8 -1 -5 -2 -15 -3 -21 0 -5 -5 -8 -10 -5 -8 5 -41 -42 -84
-121 -20 -36 -21 -43 -7 -43 6 0 10 9 10 21 0 11 4 17 10 14 10 -6 8 -17 -8
-65 -4 -11 -2 -12 7 -4 17 16 25 74 10 74 -8 0 -8 5 2 16 8 9 14 24 14 32 0 8
11 17 24 19 18 2 22 0 17 -12 -3 -10 -2 -13 5 -10 6 4 8 14 5 22 -4 9 -1 13 6
10 7 -2 12 -13 10 -23 -2 -12 13 -1 42 31 25 28 44 57 43 66 -2 18 20 49 36
49 5 0 2 -10 -8 -22 -10 -13 -2 -7 18 14 19 20 38 34 41 32 3 -2 4 -1 1 2 -4
6 109 95 148 116 10 5 16 12 13 15 -3 3 -12 0 -21 -7 -8 -7 -15 -8 -15 -2 0
12 29 24 41 17 14 -9 50 15 43 27 -5 7 -2 9 7 6 9 -3 25 2 38 11 22 17 22 18
4 32 -17 13 -17 13 -3 -5 13 -18 13 -19 0 -14 -9 3 -24 0 -34 -8 -11 -7 -23
-11 -28 -8 -5 3 -7 0 -6 -8 3 -13 -33 -19 -59 -10 -27 9 -11 23 20 18 21 -4
25 -3 13 2 -18 8 -17 10 9 30 20 16 32 19 39 12 12 -12 29 -13 22 -1 -3 5 1
11 9 15 8 3 17 1 20 -4 4 -6 12 -10 18 -10 7 0 6 4 -3 10 -17 11 -1 13 24 4
15 -6 15 -8 -1 -21 -18 -14 6 -3 155 72 57 29 78 44 67 49 -9 3 -14 2 -10 -3
3 -5 -13 -12 -35 -16 -22 -4 -38 -10 -35 -15 9 -14 -20 -18 -38 -5 -14 10 -15
14 -5 19 7 3 2 3 -11 0 -14 -4 -21 -2 -17 4 8 13 46 22 46 11 0 -4 7 -6 16 -2
10 4 12 8 5 13 -6 3 4 13 24 23 40 19 75 22 75 7 0 -5 5 -10 11 -10 17 0 5 22
-17 31 -14 5 -51 -8 -125 -44z m-145 -95 c3 -5 -1 -9 -9 -9 -8 0 -12 4 -9 9 3
4 7 8 9 8 2 0 6 -4 9 -8z m-134 -102 c12 -8 12 -10 -3 -16 -14 -5 -15 -9 -6
-20 9 -11 8 -14 -2 -14 -19 0 -41 47 -25 54 17 7 20 6 36 -4z m-40 -29 c0 -16
-51 -44 -62 -33 -6 6 0 12 17 16 14 4 23 11 20 16 -3 6 1 10 9 10 9 0 16 -4
16 -9z m-79 -67 c17 -16 17 -17 -4 -34 -16 -14 -25 -15 -35 -8 -11 9 -11 13 0
20 10 8 10 11 0 15 -14 5 -6 23 10 23 6 0 19 -7 29 -16z m-125 -113 c8 6 14 8
15 3 0 -5 2 -17 4 -26 4 -22 -11 -33 -21 -17 -4 7 -3 9 3 6 5 -3 10 0 10 8 0
11 -4 12 -14 4 -7 -6 -13 -9 -13 -6 0 3 -2 11 -3 19 -2 7 -2 9 1 5 2 -4 10 -3
18 4z m-41 -32 c-3 -5 1 -6 9 -3 22 8 31 -21 14 -45 -9 -13 -18 -17 -28 -11
-12 7 -12 11 1 27 13 17 13 17 -6 3 -11 -8 -26 -21 -34 -28 -19 -19 -26 -7 -9
17 8 12 17 18 21 15 8 -9 27 32 19 41 -4 5 -1 5 6 1 7 -4 10 -12 7 -17z"/>
<path d="M934 5613 c3 -6 2 -14 -4 -18 -5 -3 -10 -11 -10 -16 0 -6 7 -3 16 6
14 13 14 19 4 28 -10 9 -11 9 -6 0z"/>
<path d="M8730 5950 c0 -5 7 -10 16 -10 8 0 12 5 9 10 -3 6 -10 10 -16 10 -5
0 -9 -4 -9 -10z"/>
<path d="M2329 5927 c6 -8 7 -18 3 -22 -4 -5 -1 -5 6 -1 10 6 10 11 1 22 -6 8
-14 14 -16 14 -3 0 0 -6 6 -13z"/>
<path d="M2305 5906 c10 -14 19 -26 22 -26 7 0 -17 39 -28 46 -6 3 -3 -5 6
-20z"/>
<path d="M8775 5920 c-3 -5 -1 -10 4 -10 6 0 11 5 11 10 0 6 -2 10 -4 10 -3 0
-8 -4 -11 -10z"/>
<path d="M2580 5884 c-117 -31 -204 -106 -258 -221 -24 -52 -27 -70 -27 -163
0 -94 3 -111 28 -161 66 -135 189 -218 335 -227 65 -4 90 0 157 22 70 24 88
35 138 87 67 69 105 143 117 227 28 202 -95 385 -295 437 -72 18 -123 18 -195
-1z m138 -53 c2 -6 8 -9 13 -6 16 10 68 -38 80 -73 6 -19 9 -52 6 -73 -4 -29
-2 -39 9 -39 36 0 41 -75 7 -112 -8 -9 -12 -22 -8 -28 4 -7 1 -16 -6 -21 -7
-4 -10 -12 -5 -16 4 -4 13 0 20 10 20 27 28 20 10 -9 -9 -14 -22 -23 -28 -21
-6 2 -22 -9 -36 -24 -13 -16 -30 -29 -37 -29 -7 0 -13 -6 -13 -13 0 -8 -15
-14 -37 -15 -21 -2 -46 -5 -56 -8 -11 -4 -17 -1 -15 8 2 8 -8 14 -24 16 -18 2
-28 9 -28 20 0 13 -2 14 -9 3 -5 -8 -11 -9 -15 -3 -3 5 1 16 10 23 14 12 12
15 -17 26 l-34 12 39 -6 c47 -7 42 12 -5 22 -18 4 -27 10 -21 14 6 3 -7 15
-28 25 -59 29 -82 58 -88 114 -4 49 21 120 49 138 8 5 9 3 4 -6 -6 -9 -4 -11
4 -6 7 5 10 14 7 22 -3 9 0 11 11 7 10 -4 14 -2 10 4 -7 11 47 41 98 54 41 11
128 4 133 -10z m159 -327 c-2 -2 -12 -2 -21 2 -13 5 -14 9 -5 21 11 12 14 12
22 -2 5 -9 7 -19 4 -21z"/>
<path d="M2510 5800 c-8 -5 -10 -10 -5 -10 6 0 17 5 25 10 8 5 11 10 5 10 -5
0 -17 -5 -25 -10z"/>
<path d="M2686 5509 c5 -8 0 -10 -17 -6 -13 3 -31 2 -39 -4 -12 -8 -10 -9 8
-4 13 4 22 2 22 -4 0 -6 -6 -11 -12 -11 -8 0 -6 -4 3 -10 20 -12 99 -9 92 3
-3 5 -24 5 -47 2 -40 -7 -40 -6 -18 10 23 17 29 35 11 35 -5 0 -7 -5 -3 -11z"/>
<path d="M2750 5501 c-35 -5 -39 -8 -20 -12 33 -6 80 1 80 12 0 5 -3 8 -7 7
-5 0 -28 -4 -53 -7z"/>
<path d="M2770 5449 c0 -5 5 -7 10 -4 6 3 10 8 10 11 0 2 -4 4 -10 4 -5 0 -10
-5 -10 -11z"/>
<path d="M2718 5443 c6 -2 18 -2 25 0 6 3 1 5 -13 5 -14 0 -19 -2 -12 -5z"/>
<path d="M8856 5891 c-19 -7 -19 -8 0 -13 13 -3 21 0 21 8 0 8 -1 14 -1 13 -1
0 -10 -4 -20 -8z"/>
<path d="M8810 5883 c1 -9 190 -104 204 -102 5 0 12 -4 15 -9 3 -5 33 -24 66
-42 33 -18 69 -40 80 -49 15 -12 14 -9 -3 11 -13 14 -35 29 -48 32 -15 4 -22
11 -18 18 5 7 3 8 -6 3 -7 -4 -15 -4 -19 1 -3 5 -15 14 -26 20 -11 7 -19 19
-17 27 1 9 -7 21 -19 28 -14 7 -18 14 -11 18 7 4 -2 12 -21 19 -29 10 -30 10
-13 -3 18 -14 18 -15 -8 -25 -35 -13 -39 -13 -30 3 4 6 4 9 0 5 -5 -4 -25 2
-44 13 -20 10 -42 19 -49 19 -7 0 -13 5 -13 10 0 6 -4 10 -10 10 -5 0 -10 -3
-10 -7z m204 -68 c17 -13 18 -17 6 -28 -10 -10 -11 -9 -5 2 5 9 3 12 -6 9 -8
-3 -22 -1 -33 4 -15 8 -16 12 -5 19 18 11 20 11 43 -6z"/>
<path d="M2370 5873 c0 -6 8 -17 18 -24 16 -13 16 -13 2 6 -8 11 -16 22 -17
24 -2 2 -3 0 -3 -6z"/>
<path d="M4931 5804 c-29 -15 -61 -39 -73 -54 l-20 -28 -46 26 c-35 20 -60 26
-106 26 -130 -1 -228 -98 -228 -227 0 -41 -3 -47 -17 -42 -99 41 -236 -17
-282 -119 -26 -57 -25 -138 3 -195 18 -37 19 -46 7 -49 -28 -9 -95 -89 -107
-129 -34 -115 18 -242 118 -283 27 -11 28 -13 23 -71 -7 -78 15 -135 72 -188
23 -22 61 -45 82 -51 40 -12 124 -10 156 4 15 7 17 2 17 -34 0 -136 102 -240
234 -240 56 0 138 40 170 83 l27 35 51 -31 c73 -45 153 -49 227 -10 81 42 115
95 119 187 3 54 0 81 -13 105 l-16 33 23 -9 c13 -4 50 -8 84 -8 149 1 252 142
210 287 -9 30 -23 61 -31 68 -20 17 -19 33 4 47 30 19 70 95 77 146 14 99 -50
208 -142 243 -34 13 -43 21 -38 33 4 9 9 43 11 76 4 52 1 68 -24 115 -41 78
-97 113 -185 118 -63 4 -67 6 -79 33 -6 17 -31 47 -55 68 -75 66 -165 78 -253
35z m-398 -184 c3 -11 1 -18 -4 -14 -5 3 -9 12 -9 20 0 20 7 17 13 -6z m227
-30 c-10 -18 -50 -47 -50 -36 0 8 44 54 53 55 4 1 3 -8 -3 -19z m-72 -52 c-2
-6 5 -14 16 -16 10 -2 16 0 12 6 -9 14 36 23 51 10 17 -14 12 -31 -11 -34 -25
-4 -33 -14 -17 -23 20 -13 -2 -22 -50 -23 -26 0 -47 6 -57 16 -16 16 -15 19 8
38 15 13 18 19 8 15 -10 -3 -20 -2 -23 3 -3 5 7 11 22 13 16 2 31 5 36 6 4 0
6 -4 5 -11z m781 -30 c30 -32 34 -53 16 -88 -15 -28 -31 -35 -76 -32 -12 1
-16 -7 -16 -25 0 -18 -11 -36 -31 -53 -24 -20 -28 -29 -21 -47 5 -13 5 -23 1
-23 -14 0 -92 82 -92 97 0 7 -4 13 -10 13 -5 0 -10 -15 -10 -34 0 -19 -4 -38
-10 -41 -5 -3 -10 3 -10 14 0 26 -25 28 -39 4 -8 -13 -10 -14 -11 -4 0 19 39
61 57 61 7 0 21 18 32 40 19 40 11 58 -9 20 -11 -21 -40 -28 -40 -9 0 5 5 7
11 4 6 -4 13 3 16 15 5 19 10 21 40 15 22 -4 33 -3 29 4 -4 6 5 7 26 0 18 -5
34 -9 35 -9 2 0 3 13 3 29 0 20 9 36 26 50 34 27 58 27 83 -1z m-119 -42 c0
-3 -4 -8 -10 -11 -5 -3 -10 -1 -10 4 0 6 5 11 10 11 6 0 10 -2 10 -4z m-1110
-81 c0 -2 -6 -8 -13 -14 -10 -8 -14 -7 -14 2 0 8 6 14 14 14 7 0 13 -1 13 -2z
m221 -52 c13 -16 12 -17 -3 -4 -17 13 -22 21 -14 21 2 0 10 -8 17 -17z m4 -41
c3 -9 0 -12 -9 -9 -12 5 -13 1 -6 -17 7 -20 4 -28 -21 -50 -24 -22 -38 -26
-73 -24 -24 2 -42 7 -39 11 3 5 -3 15 -13 22 -18 13 -18 14 -1 15 14 0 21 15
19 41 -1 3 14 5 33 4 18 0 32 3 29 6 -2 4 5 14 17 23 23 16 53 5 64 -22z m613
10 c2 -7 -2 -10 -12 -6 -9 3 -16 11 -16 16 0 13 23 5 28 -10z m51 -19 c-3 -19
2 -27 10 -15 7 11 12 10 27 -5 11 -11 34 -25 51 -32 40 -16 32 -34 -13 -29
-31 4 -33 2 -36 -31 -4 -43 -44 -77 -82 -67 -34 8 -66 44 -66 74 0 28 54 94
84 104 12 3 22 6 24 7 1 1 1 -2 1 -6z m-118 -56 c-13 -13 -26 -3 -16 12 3 6
11 8 17 5 6 -4 6 -10 -1 -17z m-128 -101 c-4 -16 -2 -17 5 -7 6 8 12 9 16 3
12 -20 -18 -30 -54 -18 -41 13 -53 44 -21 53 12 3 21 13 21 22 0 12 5 10 19
-8 10 -13 16 -33 14 -45z m644 10 c-4 -10 -1 -13 8 -10 14 6 14 -15 0 -68 -5
-19 -11 -25 -23 -21 -10 4 -13 2 -8 -5 11 -18 -55 -15 -78 3 -11 8 -17 15 -13
15 4 0 -2 9 -13 20 -11 11 -24 20 -30 20 -5 0 -10 5 -10 10 0 6 11 8 25 5 14
-3 36 -7 50 -10 14 -3 25 -1 25 4 0 5 15 18 33 29 40 25 40 25 34 8z m-812
-366 c-3 -5 -12 -10 -18 -10 -7 0 -6 4 3 10 19 12 23 12 15 0z m45 -32 c0 -11
-11 -31 -25 -44 -14 -12 -22 -29 -19 -37 3 -8 -2 -17 -10 -20 -12 -5 -16 1
-17 21 l-1 27 -7 -30 c-7 -29 -7 -29 -13 -6 -7 24 9 71 23 71 5 0 6 7 3 15 -4
10 0 15 14 15 12 0 24 5 27 10 10 15 25 2 25 -22z m225 2 c-15 -17 -16 -20 -3
-20 9 0 19 7 22 16 4 9 9 14 12 11 3 -3 1 -13 -5 -24 -5 -10 -12 -26 -15 -35
-3 -10 -11 -15 -19 -12 -9 3 -16 -3 -20 -15 -9 -35 -41 -22 -52 20 -5 22 -2
28 24 38 16 7 37 21 47 32 9 11 19 17 22 14 3 -3 -3 -14 -13 -25z m-315 0 c-9
-6 -11 -10 -3 -10 7 0 10 -7 7 -15 -4 -8 -10 -12 -15 -9 -5 3 -7 10 -4 15 4 5
0 9 -7 9 -9 0 -9 3 2 10 8 5 20 10 25 10 6 0 3 -5 -5 -10z m265 -119 c6 -15
-14 -33 -27 -24 -5 2 -6 13 -3 23 3 11 0 20 -10 24 -8 3 -15 10 -15 16 0 14
47 -20 55 -39z m-415 7 c0 -36 -4 -35 -14 5 -4 16 -2 27 4 27 5 0 10 -14 10
-32z m-46 16 c17 -6 21 -49 10 -91 -6 -20 -13 -23 -63 -23 -94 0 -101 5 -101
61 l0 48 53 4 c28 2 60 4 69 5 9 1 23 -1 32 -4z m726 -194 c0 -5 -5 -10 -12
-10 -6 0 -8 -3 -4 -7 4 -5 13 0 20 9 11 15 13 15 24 -2 9 -15 9 -22 -2 -32 -7
-7 -11 -19 -8 -26 2 -7 -2 -12 -9 -11 -8 1 -21 0 -29 -3 -8 -3 -34 -10 -57
-15 -36 -9 -45 -7 -59 8 -15 17 -15 19 0 25 9 3 22 4 30 1 8 -3 20 1 28 10 11
14 8 15 -30 8 -26 -4 -42 -3 -42 3 0 12 84 22 88 10 2 -4 8 -8 13 -8 6 0 7 5
4 11 -4 6 1 17 11 24 23 17 34 19 34 5z"/>
<path d="M4738 5523 c7 -3 16 -2 19 1 4 3 -2 6 -13 5 -11 0 -14 -3 -6 -6z"/>
<path d="M4643 5485 c0 -8 4 -15 9 -15 4 0 8 4 8 9 0 6 -4 12 -8 15 -5 3 -9
-1 -9 -9z"/>
<path d="M5409 5479 c-27 -27 -9 -62 29 -57 22 2 28 9 30 34 4 40 -29 53 -59
23z"/>
<path d="M5292 5384 c-28 -31 10 -80 46 -58 23 15 27 41 8 59 -18 19 -37 19
-54 -1z m35 -40 c-3 -3 -12 -4 -19 -1 -8 3 -5 6 6 6 11 1 17 -2 13 -5z"/>
<path d="M5073 5204 c-20 -8 -15 -52 5 -63 26 -14 64 13 60 42 -3 22 -37 32
-65 21z m14 -36 c-3 -7 -5 -2 -5 12 0 14 2 19 5 13 2 -7 2 -19 0 -25z m24 1
c-9 -22 -10 -22 -10 -3 -1 11 2 24 6 27 12 12 14 0 4 -24z"/>
<path d="M4861 5134 c0 -11 3 -14 6 -6 3 7 2 16 -1 19 -3 4 -6 -2 -5 -13z"/>
<path d="M4946 4707 c3 -10 9 -15 12 -12 3 3 0 11 -7 18 -10 9 -11 8 -5 -6z"/>
<path d="M4916 4695 c-3 -8 -1 -15 4 -15 6 0 10 7 10 15 0 8 -2 15 -4 15 -2 0
-6 -7 -10 -15z"/>
<path d="M4390 4592 c0 -14 11 -21 26 -15 8 3 11 9 8 14 -7 11 -34 12 -34 1z"/>
<path d="M9123 5753 c0 -16 10 -16 25 -1 9 9 12 8 12 -6 0 -9 4 -15 10 -11 5
3 7 12 4 19 -7 17 -51 16 -51 -1z"/>
<path d="M9194 5718 c1 -20 7 -23 41 -24 22 -1 28 0 13 3 -26 4 -61 33 -40 33
6 0 14 -5 17 -10 4 -6 11 -7 18 -3 7 4 4 9 -9 14 -33 13 -42 10 -40 -13z"/>
<path d="M9320 5647 c0 -20 9 -25 31 -20 18 5 19 6 2 19 -23 17 -33 17 -33 1z"/>
<path d="M9510 5460 c0 -5 5 -10 10 -10 6 0 10 5 10 10 0 6 -4 10 -10 10 -5 0
-10 -4 -10 -10z"/>
<path d="M9528 5449 c-10 -10 -14 -19 -9 -19 6 0 13 5 16 11 4 6 14 8 22 4 13
-4 14 -3 3 10 -7 8 -13 15 -14 14 0 0 -9 -9 -18 -20z"/>
<path d="M722 5365 c4 -4 3 -14 -3 -22 -7 -8 -8 -13 -1 -13 15 0 23 28 9 36
-7 4 -9 4 -5 -1z"/>
<path d="M753 5342 c-3 -12 -9 -22 -13 -22 -4 0 -10 -13 -13 -30 -4 -16 -16
-39 -27 -50 -17 -17 -19 -24 -9 -36 6 -8 9 -18 5 -21 -4 -4 -12 -1 -17 7 -9
12 -9 10 -3 -5 4 -11 11 -58 14 -105 4 -47 12 -98 19 -114 8 -21 9 -32 0 -42
-6 -7 -9 -19 -6 -26 4 -8 6 -7 6 4 1 9 6 20 12 24 8 4 9 -1 4 -16 -4 -14 -3
-20 3 -16 13 8 22 -17 15 -43 -3 -12 -1 -21 6 -21 6 0 11 -4 11 -10 0 -20 -21
-9 -30 16 -6 15 -14 22 -22 18 -8 -5 -9 -2 -5 10 4 10 3 15 -3 11 -6 -3 -10 3
-10 14 0 10 -5 21 -12 23 -8 3 -12 22 -11 49 0 35 -1 39 -7 19 -8 -26 -8 -26
-15 30 -1 8 -6 23 -10 33 -8 19 -1 168 10 217 l6 25 -12 -25 c-20 -45 -23
-189 -5 -257 17 -69 56 -151 83 -179 10 -10 18 -20 18 -24 0 -3 11 -19 24 -35
18 -23 22 -25 17 -9 -4 14 -1 26 10 35 15 12 16 11 10 -11 -5 -17 -4 -21 2
-11 7 9 12 10 16 2 4 -6 0 -14 -8 -17 -9 -3 -16 -11 -16 -17 0 -5 9 -2 20 8
17 16 20 16 20 2 0 -8 7 -22 15 -30 13 -13 13 -16 -1 -21 -10 -4 -13 -2 -8 6
4 7 3 8 -4 4 -8 -5 -10 -2 -6 8 3 9 1 16 -4 16 -22 0 -20 -17 4 -48 22 -27 28
-30 50 -22 32 13 37 12 29 0 -10 -16 19 -40 36 -29 14 8 12 10 -13 13 -7 1
-12 7 -11 14 2 6 -11 21 -27 34 -17 12 -30 26 -30 31 0 5 -15 27 -34 49 -46
53 -103 171 -116 239 -12 59 -10 209 2 209 5 0 8 6 8 13 0 6 11 36 25 66 14
30 23 56 20 60 -3 3 -8 -5 -12 -17z m22 -551 c-18 -18 -32 -7 -16 12 6 8 9 23
5 33 -3 11 1 8 10 -6 13 -22 13 -27 1 -39z m115 -112 c0 -13 -18 -11 -23 4 -3
6 -6 3 -6 -7 -1 -16 -4 -17 -13 -8 -10 10 -10 15 1 21 16 10 41 4 41 -10z"/>
<path d="M9540 5345 c-10 -12 -10 -15 0 -15 8 0 11 -3 7 -6 -6 -6 19 -64 27
-64 2 0 9 7 16 15 11 13 10 14 -1 10 -10 -3 -14 3 -15 20 -1 14 2 22 8 19 6
-4 5 3 -1 15 -14 25 -24 26 -41 6z m28 -50 c-3 -3 -9 2 -12 12 -6 14 -5 15 5
6 7 -7 10 -15 7 -18z"/>
<path d="M9692 5290 c-16 -27 -15 -39 1 -15 13 17 14 17 20 -5 3 -12 1 -34 -4
-49 -8 -23 -8 -24 5 -8 12 16 14 14 18 -20 3 -21 1 -39 -4 -41 -4 -2 -8 -8 -8
-13 0 -6 5 -7 11 -3 8 4 9 -13 4 -62 -4 -38 -7 -79 -7 -91 0 -14 -5 -20 -11
-16 -6 4 -8 -2 -5 -15 4 -14 2 -20 -5 -15 -7 4 -8 0 -3 -12 6 -16 4 -16 -10
-4 -16 13 -16 12 -6 -8 14 -26 15 -36 4 -29 -5 3 -9 -1 -9 -8 0 -7 -10 -30
-23 -51 l-23 -37 -18 23 c-10 13 -19 30 -19 37 0 22 11 13 22 -19 6 -16 13
-28 15 -25 3 3 -3 25 -12 50 -16 41 -19 44 -30 29 -9 -12 -10 -25 -4 -41 5
-13 7 -28 3 -33 -3 -5 0 -8 8 -7 7 2 12 -3 10 -10 -1 -8 2 -11 9 -6 7 4 10 2
7 -7 -3 -8 -10 -13 -16 -12 -6 2 -9 -4 -5 -13 3 -9 0 -14 -8 -12 -8 2 -14 -5
-14 -17 0 -13 -6 -19 -18 -17 -12 2 -15 -2 -10 -14 4 -11 2 -15 -4 -11 -6 4
-18 -4 -27 -18 -28 -43 -4 -28 54 33 67 71 124 166 149 247 27 86 27 213 1
298 -12 37 -22 67 -23 67 -1 0 -8 -9 -15 -20z"/>
<path d="M9691 5234 c0 -11 3 -14 6 -6 3 7 2 16 -1 19 -3 4 -6 -2 -5 -13z"/>
<path d="M9595 5188 c7 -30 24 -52 33 -43 7 6 -22 75 -31 75 -5 0 -5 -15 -2
-32z"/>
<path d="M657 5164 c-4 -4 -7 -17 -7 -28 0 -17 2 -18 10 -6 8 12 10 12 10 1 0
-8 2 -12 5 -9 3 3 2 15 -3 27 -4 12 -11 19 -15 15z"/>
<path d="M9701 5144 c0 -11 3 -14 6 -6 3 7 2 16 -1 19 -3 4 -6 -2 -5 -13z"/>
<path d="M9681 5143 c0 -6 -4 -20 -7 -30 -5 -14 -4 -15 5 -7 7 7 11 20 8 30
-3 11 -5 14 -6 7z"/>
<path d="M9630 5122 c0 -5 4 -12 9 -17 5 -6 11 -19 14 -30 3 -13 5 -10 6 11 1
20 -5 34 -14 38 -8 3 -15 2 -15 -2z"/>
<path d="M9612 5072 c3 -29 2 -55 -2 -57 -4 -3 -10 -22 -13 -43 -11 -68 -82
-193 -154 -272 -39 -43 -55 -66 -38 -53 22 15 36 18 53 12 24 -9 52 -3 52 12
0 13 -17 11 -24 -3 -3 -7 -3 -2 0 12 5 24 4 24 -10 6 -9 -11 -19 -16 -23 -11
-5 4 -2 10 5 12 6 3 12 11 12 19 0 9 5 12 10 9 13 -8 42 14 35 25 -3 5 6 30
21 57 14 26 23 40 20 31 -3 -10 -1 -20 4 -23 6 -4 10 -2 10 4 0 5 3 17 7 27 4
12 3 15 -5 10 -16 -10 -15 0 2 32 8 15 25 58 37 95 17 51 25 64 30 50 4 -10 8
-13 8 -6 1 6 -2 19 -5 28 -5 12 -9 13 -14 4 -5 -7 -8 4 -8 25 0 21 -3 40 -7
44 -4 4 -5 -17 -3 -46z m-107 -342 c-3 -5 -11 -10 -16 -10 -6 0 -7 5 -4 10 3
6 11 10 16 10 6 0 7 -4 4 -10z"/>
<path d="M672 5065 c0 -16 2 -22 5 -12 2 9 2 23 0 30 -3 6 -5 -1 -5 -18z"/>
<path d="M9670 5041 c0 -12 5 -21 10 -21 6 0 10 6 10 14 0 8 -4 18 -10 21 -5
3 -10 -3 -10 -14z"/>
<path d="M680 4960 c0 -16 4 -30 8 -30 5 0 7 14 4 30 -2 17 -6 30 -8 30 -2 0
-4 -13 -4 -30z"/>
<path d="M9685 4961 c-3 -5 -1 -12 5 -16 5 -3 10 1 10 9 0 18 -6 21 -15 7z"/>
<path d="M9640 4860 c12 -23 30 -18 30 8 0 15 -2 15 -10 2 -6 -10 -10 -11 -10
-2 0 6 -5 12 -10 12 -7 0 -7 -7 0 -20z"/>
<path d="M8885 4727 c-155 -40 -266 -160 -296 -322 -10 -54 -7 -87 15 -202 3
-16 1 -20 -10 -16 -12 4 -13 0 -4 -21 9 -24 7 -26 -15 -26 -14 0 -25 -4 -25
-10 0 -5 -8 -10 -17 -10 -15 1 -15 3 5 19 15 13 18 21 10 24 -7 3 -4 6 6 6 11
1 17 4 14 7 -8 7 -88 -17 -88 -27 0 -5 -6 -6 -13 -3 -8 3 -14 -2 -14 -11 0
-13 3 -13 25 1 17 11 27 13 35 5 8 -8 7 -11 -3 -11 -12 0 -12 -2 -2 -9 10 -6
9 -10 -7 -14 -12 -3 -19 -1 -15 4 3 5 1 9 -5 9 -5 0 -11 -5 -13 -12 -3 -8 -12
-6 -30 6 -19 13 -30 14 -49 6 l-24 -10 26 5 c39 7 43 -6 12 -33 -18 -17 -22
-23 -10 -19 10 4 23 7 28 7 5 0 9 7 9 15 0 8 5 15 11 15 5 0 7 -4 4 -10 -9
-15 9 -12 67 11 118 47 113 48 173 -18 40 -44 72 -68 127 -94 67 -31 81 -34
168 -34 86 0 101 3 162 32 170 80 262 271 218 453 -12 52 -12 52 16 76 l29 24
-30 -15 c-29 -14 -30 -14 -44 13 -24 48 -146 149 -209 172 -71 27 -171 34
-237 17z m125 -49 c72 -25 119 -96 106 -160 -4 -22 -1 -34 13 -46 11 -10 21
-36 24 -61 4 -29 2 -40 -4 -30 -7 12 -9 11 -9 -3 0 -10 -3 -17 -7 -16 -19 3
-44 -17 -58 -46 -8 -17 -28 -37 -45 -44 -16 -8 -30 -19 -30 -26 0 -21 -33 -43
-75 -49 -27 -5 -35 -3 -25 3 12 8 12 10 1 10 -7 0 -11 6 -7 15 4 11 -2 15 -24
15 -42 0 -40 31 2 49 28 13 30 15 12 22 -10 4 -13 8 -6 8 29 2 9 16 -25 18
-53 3 -105 29 -130 66 -24 35 -40 123 -21 111 7 -5 8 -2 3 5 -9 15 14 63 26
55 5 -3 6 2 3 10 -3 9 -2 16 4 16 6 0 12 -5 14 -12 3 -7 7 -5 11 6 4 11 3 15
-4 10 -7 -4 -10 -1 -7 7 3 8 12 14 21 14 8 0 19 4 24 9 5 5 2 6 -7 1 -11 -6
-12 -5 -4 4 15 16 120 49 160 50 17 1 46 -4 64 -11z m153 -333 c-10 -13 -22
-25 -27 -25 -5 0 1 11 14 25 30 32 36 32 13 0z m-33 0 c0 -2 -10 -9 -22 -15
-22 -11 -22 -10 -4 4 21 17 26 19 26 11z m-276 -30 c3 -8 1 -15 -4 -15 -6 0
-10 4 -10 9 0 5 -8 12 -17 14 -14 4 -13 5 3 6 12 0 24 -6 28 -14z m246 -61 c0
-9 -5 -14 -12 -12 -18 6 -21 28 -4 28 9 0 16 -7 16 -16z m-35 -33 c-3 -6 -13
-11 -21 -11 -8 0 -14 -4 -14 -9 0 -5 -8 -12 -17 -15 -15 -6 -15 -4 2 14 10 11
24 20 32 20 7 0 13 5 13 12 0 6 3 9 6 5 3 -3 3 -10 -1 -16z m-445 -61 c0 -5
-2 -10 -4 -10 -3 0 -8 5 -11 10 -3 6 -1 10 4 10 6 0 11 -4 11 -10z m-83 -6
c-3 -3 -12 -4 -19 -1 -8 3 -5 6 6 6 11 1 17 -2 13 -5z"/>
<path d="M8988 4663 c7 -3 16 -2 19 1 4 3 -2 6 -13 5 -11 0 -14 -3 -6 -6z"/>
<path d="M8976 4357 c3 -10 9 -15 12 -12 3 3 0 11 -7 18 -10 9 -11 8 -5 -6z"/>
<path d="M8927 4343 c-13 -12 -7 -19 18 -21 14 -1 25 3 25 9 0 5 -4 7 -10 4
-5 -3 -10 -1 -10 4 0 12 -13 14 -23 4z"/>
<path d="M9020 4331 c0 -5 9 -7 20 -4 11 3 20 7 20 9 0 2 -9 4 -20 4 -11 0
-20 -4 -20 -9z"/>
<path d="M880 4637 c8 -11 40 -39 71 -63 51 -39 59 -42 72 -29 13 13 16 13 21
-1 3 -8 2 -12 -3 -9 -5 3 -12 1 -15 -4 -4 -5 -1 -13 6 -18 13 -8 18 -9 39 -12
5 0 8 -4 6 -8 -3 -5 26 -27 64 -50 38 -23 66 -37 63 -31 -5 8 5 9 32 5 l39 -7
-30 20 c-16 10 -32 17 -35 15 -4 -2 -18 6 -30 18 -19 16 -22 18 -17 4 7 -20 7
-20 -28 -7 -15 6 -23 15 -19 21 5 8 9 8 14 -1 5 -7 10 -8 14 -2 6 10 -62 62
-82 62 -7 0 -12 4 -12 8 0 4 -20 25 -45 45 -39 33 -48 36 -66 26 -12 -6 -24
-7 -28 -3 -3 5 -15 16 -26 24 -19 14 -19 14 -5 -3z m119 -53 c12 -15 18 -30
15 -35 -8 -14 -26 1 -20 16 3 8 -2 11 -15 8 -13 -4 -19 0 -19 11 0 10 -4 15
-9 11 -5 -3 -12 -2 -15 3 -2 4 6 9 19 10 15 1 31 -8 44 -24z m99 -70 c12 -8
20 -20 17 -25 -10 -15 -23 -10 -30 10 -4 13 -13 18 -26 16 -11 -2 -17 0 -14 6
9 13 27 11 53 -7z m95 -78 c4 -10 1 -13 -9 -9 -15 6 -19 23 -5 23 5 0 11 -7
14 -14z"/>
<path d="M9448 4622 c11 -7 8 -11 -10 -16 -13 -4 -18 -10 -11 -12 7 -3 9 -12
6 -21 -4 -11 -3 -14 6 -9 7 5 10 15 7 23 -4 10 -1 13 12 9 12 -4 26 2 37 14
16 18 17 20 2 14 -9 -3 -17 -10 -17 -15 0 -5 -4 -9 -10 -9 -5 0 -9 5 -7 11 1
6 -5 14 -13 16 -12 4 -12 3 -2 -5z"/>
<path d="M9337 4595 c-18 -13 -18 -14 0 -23 15 -8 18 -6 18 14 0 13 0 24 0 24
0 0 -8 -7 -18 -15z"/>
<path d="M9400 4571 c0 -6 4 -13 10 -16 6 -3 7 1 4 9 -7 18 -14 21 -14 7z"/>
<path d="M9337 4545 c3 -8 9 -12 14 -9 12 7 11 11 -5 17 -10 4 -13 1 -9 -8z"/>
<path d="M7660 4461 c0 -6 4 -13 10 -16 6 -3 7 1 4 9 -7 18 -14 21 -14 7z"/>
<path d="M1220 4401 c0 -5 7 -11 14 -14 10 -4 13 -1 9 9 -6 15 -23 19 -23 5z"/>
<path d="M1281 4402 c0 -7 -5 -11 -9 -8 -5 3 -9 -1 -9 -9 0 -8 2 -13 5 -11 2
3 13 -4 25 -15 11 -10 29 -19 38 -19 10 0 19 -3 21 -7 2 -5 18 -16 36 -27 26
-14 37 -15 45 -7 9 9 7 11 -8 6 -15 -5 -16 -4 -6 3 20 15 6 29 -61 63 -33 17
-57 26 -54 20 4 -5 2 -12 -3 -15 -5 -4 -12 4 -14 16 -2 13 -5 17 -6 10z m127
-82 c2 -5 -1 -10 -7 -10 -6 0 -11 4 -11 10 0 12 -55 41 -63 34 -3 -3 -11 -3
-17 1 -9 6 -9 10 1 16 14 8 91 -32 97 -51z"/>
<path d="M1443 4304 c0 -18 13 -28 74 -54 42 -17 78 -29 81 -26 3 3 -1 6 -8 6
-10 0 -11 3 -4 10 13 13 64 -4 64 -20 0 -14 -13 -13 -29 3 -11 10 -13 9 -9 -2
5 -17 78 -45 78 -30 0 5 12 9 28 8 l27 0 -24 -10 c-13 -5 -22 -12 -19 -15 3
-2 16 0 29 6 19 8 35 6 73 -8 36 -14 44 -21 31 -26 -10 -4 -31 2 -52 15 -22
14 -38 18 -44 12 -6 -6 25 -21 83 -41 57 -20 95 -29 101 -23 5 5 26 7 46 5
l36 -4 -40 13 c-22 8 -44 10 -49 5 -14 -11 -36 -10 -36 2 0 6 8 10 18 11 9 0
4 5 -13 11 -16 6 -88 32 -159 59 -97 37 -132 46 -146 39 -27 -14 -38 -12 -18
4 16 11 14 14 -19 30 -25 12 -39 14 -46 7 -8 -8 -4 -11 14 -11 34 0 56 -15 34
-23 -11 -5 -14 -3 -9 5 5 7 2 9 -8 6 -8 -4 -30 1 -48 10 -31 15 -32 17 -12 22
l21 5 -23 11 c-21 10 -23 9 -23 -12z m247 -94 c0 -5 -10 -10 -22 -9 -22 0 -22
1 -3 9 11 5 21 9 23 9 1 1 2 -3 2 -9z m180 -70 c-20 -13 -33 -13 -25 0 3 6 14
10 23 10 15 0 15 -2 2 -10z"/>
<path d="M2006 4101 c-3 -4 -22 -7 -43 -5 -32 3 -35 2 -15 -6 13 -6 28 -8 33
-4 5 3 9 1 9 -4 0 -15 51 -25 64 -12 8 8 6 9 -6 5 -10 -4 -18 -2 -18 4 0 6 -8
8 -17 5 -15 -5 -15 -3 1 10 11 9 15 16 9 16 -7 0 -14 -4 -17 -9z"/>
<path d="M8340 4100 c-9 -6 -10 -10 -3 -10 6 0 15 5 18 10 8 12 4 12 -15 0z"/>
<path d="M8295 4090 c-3 -5 -2 -10 4 -10 5 0 13 5 16 10 3 6 2 10 -4 10 -5 0
-13 -4 -16 -10z"/>
<path d="M2145 4060 c28 -10 59 -18 70 -18 11 0 -7 8 -40 19 -76 24 -96 23
-30 -1z"/>
<path d="M8224 4055 c14 -11 16 -15 5 -15 -12 0 -12 -2 1 -10 12 -8 10 -10 -9
-10 -13 0 -21 -3 -18 -6 4 -4 43 4 87 17 48 13 75 26 68 30 -7 5 -15 4 -18 0
-11 -18 -61 -21 -97 -6 -33 13 -36 13 -19 0z m43 -21 c-3 -3 -12 -4 -19 -1 -8
3 -5 6 6 6 11 1 17 -2 13 -5z"/>
<path d="M2100 4052 c0 -8 80 -35 86 -29 2 1 -17 10 -41 19 -25 10 -45 14 -45
10z"/>
<path d="M8146 4051 c-18 -7 -18 -8 -3 -14 9 -3 17 -2 17 3 0 5 8 11 18 13 11
3 12 5 2 5 -8 0 -24 -3 -34 -7z"/>
<path d="M2455 4039 c-4 -6 -5 -12 -2 -15 2 -3 7 2 10 11 7 17 1 20 -8 4z"/>
<path d="M2236 4031 c-4 -5 3 -7 14 -4 23 6 26 13 6 13 -8 0 -17 -4 -20 -9z"/>
<path d="M8110 4030 c8 -5 20 -10 25 -10 6 0 3 5 -5 10 -8 5 -19 10 -25 10 -5
0 -3 -5 5 -10z"/>
<path d="M2278 3993 c7 -3 16 -2 19 1 4 3 -2 6 -13 5 -11 0 -14 -3 -6 -6z"/>
<path d="M8010 3970 c-6 -11 -8 -20 -6 -20 3 0 10 9 16 20 6 11 8 20 6 20 -3
0 -10 -9 -16 -20z"/>
<path d="M8068 3973 c7 -3 16 -2 19 1 4 3 -2 6 -13 5 -11 0 -14 -3 -6 -6z"/>
<path d="M7996 3870 c34 -52 41 -52 12 0 -13 22 -26 40 -31 40 -4 0 5 -18 19
-40z"/>
<path d="M2268 3868 c-33 -51 -39 -66 -23 -64 8 1 18 6 22 11 4 4 2 5 -4 1
-18 -10 -16 2 8 40 23 37 20 47 -3 12z"/>
<path d="M2330 3835 c-7 -9 -11 -17 -9 -20 3 -2 10 5 17 15 14 24 10 26 -8 5z"/>
<path d="M8063 3835 c0 -8 4 -12 9 -9 5 3 6 10 3 15 -9 13 -12 11 -12 -6z"/>
<path d="M8045 3796 c10 -14 19 -26 22 -26 7 0 -17 39 -28 46 -6 3 -3 -5 6
-20z"/>
<path d="M8141 3794 c0 -11 3 -14 6 -6 3 7 2 16 -1 19 -3 4 -6 -2 -5 -13z"/>
<path d="M2266 3773 c-6 -14 -5 -15 5 -6 7 7 10 15 7 18 -3 3 -9 -2 -12 -12z"/>
<path d="M8156 3773 c-4 -9 -4 -14 0 -10 4 4 14 1 23 -6 14 -11 15 -10 1 8 -8
11 -15 21 -16 23 -1 2 -5 -5 -8 -15z"/>
<path d="M2186 3723 c-15 -25 -24 -48 -22 -51 3 -2 16 19 30 47 33 64 27 67
-8 4z"/>
<path d="M8126 3728 c3 -5 10 -6 15 -3 13 9 11 12 -6 12 -8 0 -12 -4 -9 -9z"/>
<path d="M8202 3718 c7 -13 11 -26 10 -30 -1 -5 3 -8 9 -8 5 0 7 -4 4 -10 -3
-5 1 -10 10 -10 12 0 10 8 -11 40 -29 43 -43 54 -22 18z"/>
<path d="M8115 3700 c-3 -5 -5 -10 -3 -11 33 -8 38 -7 27 7 -14 17 -16 17 -24
4z"/>
<path d="M2231 3683 c3 -19 -2 -34 -10 -29 -5 3 -16 -6 -25 -19 -10 -15 -22
-23 -29 -19 -7 4 -9 4 -5 0 4 -5 -2 -17 -12 -29 -17 -18 -18 -21 -4 -31 12 -9
13 -17 5 -39 -14 -36 -5 -35 14 3 14 27 14 30 -3 39 -15 9 -14 13 16 43 34 35
46 26 12 -10 -11 -11 -16 -23 -12 -26 4 -3 23 22 40 54 21 37 29 61 22 65 -6
4 -10 3 -9 -2z"/>
<path d="M8141 3651 c8 -13 19 -32 25 -43 8 -13 13 -15 16 -6 2 7 -10 27 -26
43 -23 24 -26 26 -15 6z"/>
<path d="M2170 3639 c0 -5 5 -7 10 -4 6 3 10 8 10 11 0 2 -4 4 -10 4 -5 0 -10
-5 -10 -11z"/>
<path d="M8185 3640 c3 -5 8 -10 11 -10 2 0 4 5 4 10 0 6 -5 10 -11 10 -5 0
-7 -4 -4 -10z"/>
<path d="M2135 3631 c-3 -5 -1 -12 5 -16 5 -3 10 1 10 9 0 18 -6 21 -15 7z"/>
<path d="M8236 3607 c-11 -8 -16 -21 -13 -33 4 -17 5 -17 6 2 1 26 28 39 47
23 12 -10 13 -9 8 5 -7 19 -24 21 -48 3z"/>
<path d="M2067 3497 c-82 -164 -114 -240 -109 -256 3 -8 0 -11 -7 -7 -7 5 -9
1 -4 -10 5 -13 3 -15 -7 -9 -8 5 -11 4 -7 -2 4 -6 0 -19 -8 -29 -8 -10 -14
-23 -14 -29 0 -5 6 -2 13 8 12 16 14 16 20 2 7 -19 21 -12 36 15 8 16 8 18 -5
14 -8 -4 -15 -14 -15 -23 0 -14 -2 -14 -10 -1 -5 9 -5 17 0 20 6 3 11 20 13
38 4 34 17 57 17 29 0 -9 4 -18 9 -21 5 -3 8 5 7 18 0 13 -5 22 -9 19 -10 -6
2 46 15 67 8 12 8 11 4 -3 -3 -10 1 -31 9 -47 13 -25 13 -32 -1 -60 -9 -17
-14 -33 -12 -36 8 -8 93 191 90 211 -2 17 -1 18 8 5 10 -13 11 -12 6 3 -3 9
-1 17 4 17 5 0 14 9 20 21 9 16 8 26 -4 44 -15 22 -14 25 2 34 9 6 12 11 6 11
-19 0 -24 28 -8 44 8 8 10 17 6 20 -5 3 -34 -45 -65 -107z m32 22 c-12 -7 -12
-9 0 -9 8 0 11 -6 7 -16 -3 -8 -1 -25 5 -36 10 -18 9 -20 -5 -15 -10 4 -15 3
-12 -1 2 -4 -3 -16 -11 -27 -13 -16 -14 -16 -10 -3 5 15 4 16 -13 6 -18 -12
-18 -13 -2 -22 25 -13 25 -13 16 -28 -5 -7 -9 -18 -10 -24 -1 -6 -9 -24 -17
-40 -11 -20 -16 -24 -17 -11 0 9 -3 17 -7 17 -5 0 -8 13 -9 30 -1 17 3 27 9
23 6 -3 7 -1 3 5 -4 6 4 33 18 59 13 26 32 66 42 87 10 22 20 34 22 27 3 -8
-2 -17 -9 -22z m31 -50 c0 -6 -4 -7 -10 -4 -5 3 -10 11 -10 16 0 6 5 7 10 4 6
-3 10 -11 10 -16z"/>
<path d="M2077 3473 c-4 -3 -7 -11 -7 -17 0 -6 5 -5 12 2 6 6 9 14 7 17 -3 3
-9 2 -12 -2z"/>
<path d="M2040 3381 c0 -6 5 -13 10 -16 6 -3 10 1 10 9 0 9 -4 16 -10 16 -5 0
-10 -4 -10 -9z"/>
<path d="M2040 3335 c-7 -9 -11 -17 -9 -20 3 -2 10 5 17 15 14 24 10 26 -8 5z"/>
<path d="M8285 3569 c-4 -6 -5 -12 -2 -15 2 -3 7 2 10 11 7 17 1 20 -8 4z"/>
<path d="M8241 3563 c-1 -17 16 -25 25 -12 4 7 3 9 -4 5 -5 -3 -13 0 -15 6 -4
9 -6 10 -6 1z"/>
<path d="M8299 3521 c-18 -15 -21 -22 -12 -31 8 -9 11 -8 10 6 -2 13 4 19 19
18 14 0 20 4 17 13 -7 17 -6 17 -34 -6z"/>
<path d="M8341 3484 c0 -11 3 -14 6 -6 3 7 2 16 -1 19 -3 4 -6 -2 -5 -13z"/>
<path d="M8300 3461 c-5 -11 -7 -28 -4 -38 4 -13 0 -11 -16 7 -15 18 -12 9 9
-30 17 -30 36 -54 42 -52 6 2 9 -3 6 -10 -2 -8 5 -33 17 -57 19 -36 24 -40 35
-28 10 13 9 16 -7 21 -32 11 -50 76 -20 76 5 0 6 -9 3 -20 -8 -25 1 -26 15 -1
6 13 7 28 1 43 -8 18 -10 19 -10 5 -1 -10 -6 -15 -11 -12 -6 4 -17 2 -24 -4
-11 -9 -13 -3 -11 30 2 26 -1 36 -6 28 -7 -11 -9 -10 -9 3 0 9 5 20 10 23 13
8 13 35 0 35 -5 0 -14 -9 -20 -19z m11 -14 c-10 -9 -11 -8 -5 6 3 10 9 15 12
12 3 -3 0 -11 -7 -18z"/>
<path d="M8370 3439 c0 -9 3 -19 7 -23 12 -12 31 -75 23 -78 -4 -2 -11 -14
-15 -28 -7 -24 -7 -25 10 -5 10 13 15 15 12 5 -2 -8 16 -33 41 -56 29 -27 42
-46 37 -54 -5 -9 -4 -11 3 -6 12 7 16 -4 13 -34 -2 -13 -1 -13 8 0 9 12 11 13
11 1 0 -8 2 -12 5 -9 8 7 -44 108 -56 108 -6 0 -9 6 -7 12 3 7 -8 34 -24 61
-15 26 -28 50 -28 52 0 3 -9 19 -20 37 -11 19 -20 26 -20 17z m64 -116 c4 -9
1 -21 -5 -27 -9 -8 -10 -7 -6 7 4 9 2 17 -3 17 -6 0 -10 5 -10 10 0 16 17 11
24 -7z"/>
<path d="M8343 3405 c-7 -8 -9 -16 -4 -19 5 -3 12 1 15 10 8 22 4 25 -11 9z"/>
<path d="M8406 3178 c30 -61 40 -73 29 -39 -5 17 -4 21 5 16 9 -5 10 -2 5 14
-4 12 -2 21 4 21 6 0 11 -5 11 -12 0 -6 2 -9 5 -6 3 3 1 17 -4 32 -12 29 -36
36 -26 7 3 -12 0 -21 -10 -24 -10 -4 -17 2 -21 18 -3 14 -10 25 -15 25 -5 0 3
-24 17 -52z"/>
<path d="M1976 3150 c-9 -17 -22 -28 -27 -25 -14 9 -23 -23 -10 -38 12 -15
-20 -113 -33 -100 -4 4 -4 0 -1 -9 4 -9 1 -25 -5 -35 -11 -17 -11 -17 -6 0 3
10 -1 29 -10 42 -11 16 -13 29 -6 42 5 10 7 24 4 32 -3 8 0 11 7 7 6 -4 11
-13 11 -21 0 -8 4 -17 10 -20 6 -3 7 1 4 9 -3 9 -1 16 6 16 6 0 8 5 5 10 -4 6
-10 8 -15 5 -10 -6 -23 27 -13 34 4 3 9 15 10 26 1 11 -6 2 -17 -20 -11 -22
-18 -46 -15 -52 2 -7 0 -13 -4 -13 -5 0 -23 -45 -41 -101 -26 -79 -30 -103
-20 -112 10 -9 11 -7 5 12 -5 18 -4 22 5 16 9 -5 11 -4 6 3 -4 7 5 29 19 49
14 21 25 46 25 57 0 29 11 12 15 -24 3 -18 6 -35 9 -37 5 -5 61 158 60 172 -1
6 -5 19 -9 30 -6 19 -6 19 8 3 13 -16 15 -14 30 24 20 50 17 58 -7 18z m-118
-196 c-6 -21 -13 -32 -15 -23 -4 17 15 75 22 67 2 -2 -1 -22 -7 -44z"/>
<path d="M8478 3148 c16 -16 15 -31 0 -22 -7 4 -10 3 -5 -1 4 -5 0 -16 -8 -25
-14 -15 -14 -20 1 -46 l16 -29 -7 30 c-6 28 -5 29 10 14 13 -13 15 -21 6 -37
-13 -25 -14 -43 -1 -22 6 10 9 6 8 -16 -1 -17 4 -39 9 -49 8 -13 10 -5 9 35
-1 35 3 55 12 57 8 3 10 -2 6 -14 -4 -13 -3 -14 4 -5 12 18 4 56 -17 79 -9 10
-18 20 -18 23 -7 24 -17 40 -26 40 -7 0 -7 -4 1 -12z m41 -69 c11 -18 10 -24
-3 -37 -13 -14 -14 -13 -10 5 3 11 -1 25 -10 32 -9 8 -16 17 -16 22 0 14 25 0
39 -22z"/>
<path d="M8528 3135 c-7 -7 14 -55 24 -55 3 0 4 -9 1 -19 -3 -12 3 -26 14 -36
14 -12 19 -27 17 -58 -2 -29 3 -50 16 -67 12 -15 20 -19 20 -11 0 8 -7 22 -16
32 -9 10 -13 23 -8 30 10 16 74 -149 66 -170 -4 -12 -2 -13 7 -5 10 9 3 37
-30 125 -23 63 -48 119 -56 126 -8 6 -13 15 -10 20 6 10 -37 96 -45 88z"/>
<path d="M8524 2965 c7 -37 14 -42 14 -10 0 14 -5 28 -10 31 -5 3 -6 -7 -4
-21z"/>
<path d="M8550 2919 c0 -6 -7 -9 -15 -5 -16 6 -20 -5 -6 -19 4 -6 21 -56 36
-112 16 -57 30 -101 32 -99 3 2 -1 22 -6 44 -6 22 -8 48 -4 58 5 13 3 15 -7 9
-9 -5 -11 -4 -6 3 4 6 -1 23 -10 37 -11 17 -15 37 -11 60 3 19 4 35 1 35 -2 0
-4 -5 -4 -11z"/>
<path d="M8566 2893 c-6 -14 -5 -15 5 -6 7 7 10 15 7 18 -3 3 -9 -2 -12 -12z"/>
<path d="M1866 2847 c3 -10 9 -15 12 -12 3 3 0 11 -7 18 -10 9 -11 8 -5 -6z"/>
<path d="M1853 2829 c3 -9 -3 -47 -13 -85 -10 -38 -19 -61 -19 -52 -1 9 -4 24
-8 34 -5 12 -3 15 6 9 10 -6 12 0 6 26 -7 34 -24 63 -32 55 -6 -6 -53 -207
-53 -228 0 -10 7 -18 15 -18 8 0 15 -5 15 -12 0 -9 3 -9 13 1 10 10 9 15 -3
24 -10 7 -16 26 -15 47 2 56 17 120 27 114 5 -3 7 -13 4 -21 -4 -9 -2 -11 5
-7 12 7 9 -30 -5 -86 -6 -20 -4 -19 7 5 l15 30 -4 -45 c-3 -26 6 -2 21 59 13
56 27 110 29 120 3 9 1 23 -5 31 -9 13 -10 13 -6 -1z m-43 -62 c0 -18 -2 -19
-10 -7 -13 20 -13 43 0 35 6 -3 10 -16 10 -28z"/>
<path d="M1828 2818 c-3 -7 -2 -22 2 -32 6 -19 7 -19 12 1 7 25 -6 53 -14 31z"/>
<path d="M8641 2804 c0 -11 3 -14 6 -6 3 7 2 16 -1 19 -3 4 -6 -2 -5 -13z"/>
<path d="M8647 2728 c4 -55 13 -62 13 -10 0 22 -4 43 -8 46 -5 3 -7 -14 -5
-36z"/>
<path d="M8676 2755 c-4 -12 -3 -21 3 -23 6 -2 11 -19 11 -38 0 -19 4 -34 9
-34 5 0 11 -12 14 -27 3 -16 9 -40 13 -56 5 -24 4 -26 -12 -21 -11 3 -15 2 -9
-3 10 -8 11 -11 14 -65 1 -24 4 -29 10 -19 8 12 11 10 15 -10 12 -55 15 -62
10 -24 -2 22 -5 54 -5 70 -1 30 -1 30 -10 5 -6 -19 -7 -14 -4 20 3 26 -2 69
-11 100 -8 30 -21 75 -28 100 -10 36 -14 41 -20 25z"/>
<path d="M8618 2737 c-3 -19 -2 -25 4 -19 6 6 8 18 6 28 -3 14 -5 12 -10 -9z"/>
<path d="M1781 2674 c0 -11 3 -14 6 -6 3 7 2 16 -1 19 -3 4 -6 -2 -5 -13z"/>
<path d="M8602 2650 c0 -14 2 -19 5 -12 2 6 2 18 0 25 -3 6 -5 1 -5 -13z"/>
<path d="M8632 2661 c-11 -7 -11 -9 2 -14 10 -4 16 -1 16 8 0 17 -1 17 -18 6z"/>
<path d="M8616 2622 c-4 -10 -2 -42 4 -72 5 -29 10 -77 10 -106 0 -30 4 -54 8
-54 10 0 7 57 -8 158 -5 35 -6 70 -3 78 3 8 3 14 0 14 -3 0 -8 -8 -11 -18z"/>
<path d="M1800 2553 c0 -12 -6 -24 -12 -26 -7 -3 -8 -6 -3 -6 6 -1 8 -30 5
-78 -3 -43 -3 -98 0 -123 4 -29 8 7 12 100 3 80 4 147 2 149 -2 2 -4 -5 -4
-16z"/>
<path d="M1730 2534 c0 -14 4 -23 9 -20 5 3 7 15 4 26 -7 28 -13 25 -13 -6z"/>
<path d="M1753 2533 c1 -18 6 -28 10 -24 4 4 3 18 -2 32 -9 23 -9 22 -8 -8z"/>
<path d="M1721 2361 c1 -97 5 -138 11 -127 6 10 7 28 4 41 -4 14 -1 25 7 28 9
4 9 8 -2 15 -12 9 -12 13 2 27 16 15 17 15 17 -2 0 -10 5 -25 11 -33 8 -11 9
-9 3 9 -3 14 -7 37 -8 52 -1 15 -5 31 -9 36 -5 4 -5 0 -2 -8 3 -9 0 -21 -8
-28 -12 -9 -15 -1 -16 56 -1 37 -4 69 -6 72 -3 3 -5 -59 -4 -138z"/>
<path d="M1766 2485 c-9 -26 -7 -32 5 -12 6 10 9 21 6 23 -2 3 -7 -2 -11 -11z"/>
<path d="M6531 2444 c0 -11 3 -14 6 -6 3 7 2 16 -1 19 -3 4 -6 -2 -5 -13z"/>
<path d="M1760 2436 c0 -8 5 -18 10 -21 6 -3 10 1 10 9 0 8 -4 18 -10 21 -5 3
-10 -1 -10 -9z"/>
<path d="M4110 2430 c-9 -6 -10 -10 -3 -10 6 0 15 5 18 10 8 12 4 12 -15 0z"/>
<path d="M6441 2424 c0 -11 3 -14 6 -6 3 7 2 16 -1 19 -3 4 -6 -2 -5 -13z"/>
<path d="M8733 2380 c0 -30 2 -43 4 -27 2 15 2 39 0 55 -2 15 -4 2 -4 -28z"/>
<path d="M6431 2374 c0 -11 3 -14 6 -6 3 7 2 16 -1 19 -3 4 -6 -2 -5 -13z"/>
<path d="M8636 2358 c-7 -28 -8 -103 -1 -96 7 7 19 118 12 118 -2 0 -7 -10
-11 -22z"/>
<path d="M8752 2350 c0 -19 2 -27 5 -17 2 9 2 25 0 35 -3 9 -5 1 -5 -18z"/>
<path d="M4246 2333 c-6 -14 -5 -15 5 -6 7 7 10 15 7 18 -3 3 -9 -2 -12 -12z"/>
<path d="M8732 2300 c0 -14 2 -19 5 -12 2 6 2 18 0 25 -3 6 -5 1 -5 -13z"/>
<path d="M3839 2298 c-5 -18 -6 -38 -1 -34 7 8 12 36 6 36 -2 0 -4 -1 -5 -2z"/>
<path d="M8753 2245 c0 -33 2 -45 4 -27 2 18 2 45 0 60 -2 15 -4 0 -4 -33z"/>
<path d="M1754 2237 l-1 -42 10 33 c6 20 7 36 1 42 -6 6 -10 -7 -10 -33z"/>
<path d="M3774 2264 c-18 -14 -18 -15 4 -4 12 6 22 13 22 15 0 8 -5 6 -26 -11z"/>
<path d="M1781 2254 c0 -11 3 -14 6 -6 3 7 2 16 -1 19 -3 4 -6 -2 -5 -13z"/>
<path d="M8721 2258 c-1 -10 -5 -18 -11 -18 -5 0 -10 -7 -10 -15 0 -21 20 -19
21 3 0 14 2 14 9 -3 5 -13 9 -14 9 -5 0 8 -4 24 -9 35 -7 17 -9 17 -9 3z"/>
<path d="M6406 2243 c-6 -14 -5 -15 5 -6 7 7 10 15 7 18 -3 3 -9 -2 -12 -12z"/>
<path d="M3681 2216 c-49 -25 -60 -34 -46 -39 15 -6 15 -10 4 -24 -13 -15 -12
-15 10 -2 13 8 33 20 45 26 18 11 18 13 4 13 -22 0 -23 16 -2 24 22 8 26 8 19
-3 -3 -5 0 -13 6 -17 8 -4 9 -3 5 4 -7 11 6 17 28 13 5 -1 4 4 -2 12 -7 8 -9
17 -5 20 11 12 0 7 -66 -27z m-9 -38 c-6 -6 -16 -7 -22 -3 -9 6 -9 9 1 16 17
10 34 0 21 -13z"/>
<path d="M3795 2240 c-3 -6 1 -7 9 -4 18 7 21 14 7 14 -6 0 -13 -4 -16 -10z"/>
<path d="M8621 2233 c0 -13 -10 -45 -20 -73 -11 -27 -14 -47 -9 -44 6 4 9 1 7
-5 -3 -7 -8 -11 -11 -9 -4 2 -20 -18 -36 -43 -29 -45 -139 -160 -151 -157 -3
1 -20 -5 -38 -15 -17 -9 -62 -25 -100 -36 -66 -19 -67 -20 -26 -20 24 -1 43 4
46 12 3 9 9 9 27 -1 20 -12 22 -12 17 2 -6 14 -3 15 16 5 20 -11 21 -11 8 4
-21 26 3 20 31 -8 17 -17 25 -20 25 -10 0 8 -3 15 -7 15 -4 0 -7 7 -7 15 0 8
4 15 9 15 5 0 21 14 35 30 13 17 29 27 35 24 5 -3 18 2 30 13 11 10 23 17 26
15 4 -2 8 2 10 10 2 9 0 8 -7 -2 -8 -11 -11 -12 -11 -2 0 7 -4 10 -10 7 -5 -3
-10 -1 -10 4 0 11 13 15 37 12 6 -1 15 4 19 10 5 9 2 10 -9 6 -11 -4 -14 -2
-10 8 3 8 9 12 14 9 5 -3 12 8 15 25 4 17 12 31 20 31 12 0 27 29 23 46 -1 5
2 25 6 44 7 28 9 31 15 15 4 -11 3 -26 -3 -33 -5 -7 -7 -15 -3 -19 3 -3 6 -1
6 5 0 6 7 9 15 6 20 -8 20 29 1 49 -8 7 -16 25 -19 38 -4 23 -4 23 -6 2z
m-127 -278 c-4 -8 -11 -15 -16 -15 -6 0 -5 6 2 15 7 8 14 15 16 15 2 0 1 -7
-2 -15z m-107 -80 c0 -17 -13 -20 -21 -6 -4 5 0 12 6 14 7 3 13 6 14 6 0 1 1
-6 1 -14z"/>
<path d="M1802 2215 c0 -16 2 -22 5 -12 2 9 2 23 0 30 -3 6 -5 -1 -5 -18z"/>
<path d="M4246 2200 c3 -14 11 -32 16 -40 6 -10 7 -7 2 10 -3 14 -11 32 -16
40 -6 10 -7 7 -2 -10z"/>
<path d="M4285 2209 c-4 -6 -5 -12 -2 -15 2 -3 7 2 10 11 7 17 1 20 -8 4z"/>
<path d="M1731 2190 c0 -14 7 -41 14 -60 18 -46 18 -28 0 35 -8 29 -14 39 -14
25z"/>
<path d="M1766 2195 c-3 -8 -1 -15 4 -15 6 0 10 7 10 15 0 8 -2 15 -4 15 -2 0
-6 -7 -10 -15z"/>
<path d="M6580 2195 c18 -9 29 -10 38 -3 7 6 10 13 7 17 -3 3 -9 0 -13 -6 -5
-8 -13 -9 -22 -3 -8 6 -19 10 -25 9 -5 0 1 -6 15 -14z"/>
<path d="M6677 2199 c7 -7 15 -10 18 -7 3 3 -2 9 -12 12 -14 6 -15 5 -6 -5z"/>
<path d="M6392 2170 c0 -14 2 -19 5 -12 2 6 2 18 0 25 -3 6 -5 1 -5 -13z"/>
<path d="M6730 2175 c14 -8 30 -14 35 -14 6 0 -1 6 -15 14 -14 8 -29 14 -35
14 -5 0 1 -6 15 -14z"/>
<path d="M1788 2141 c-1 -20 -2 -44 -2 -53 1 -14 -3 -15 -13 -7 -10 9 -13 7
-13 -5 0 -11 5 -14 12 -10 8 5 9 2 5 -10 -5 -11 -3 -15 5 -10 8 5 9 1 5 -12
-6 -15 -3 -14 13 5 21 24 26 43 11 39 -10 -3 -11 0 -11 45 l1 32 21 -45 c11
-25 27 -58 34 -74 11 -24 11 -31 0 -48 -18 -26 -30 -7 -21 33 5 22 4 29 -4 25
-6 -4 -9 -10 -7 -14 6 -10 -21 -32 -29 -24 -4 4 0 -7 9 -25 9 -17 22 -35 28
-39 10 -6 11 -4 1 7 -17 18 -17 34 0 20 8 -6 17 -8 20 -4 10 10 8 -6 -3 -28
-18 -32 -3 -21 20 16 l21 34 -35 75 c-20 42 -36 84 -36 94 0 10 -7 19 -15 19
-10 0 -16 -12 -17 -36z m84 -163 c-7 -7 -12 -8 -12 -2 0 6 3 14 7 17 3 4 9 5
12 2 2 -3 -1 -11 -7 -17z"/>
<path d="M3581 2161 c-11 -7 -11 -9 0 -14 11 -4 11 -6 1 -6 -7 -1 -10 -6 -6
-12 4 -7 1 -10 -7 -7 -8 3 -13 10 -12 17 2 8 -137 -55 -165 -75 -2 -1 8 -1 21
0 14 0 23 5 20 10 -3 5 0 6 8 4 8 -3 13 -11 12 -17 -2 -6 35 8 82 31 63 31 81
45 70 51 -9 4 -13 12 -10 18 8 11 4 11 -14 0z m-26 -41 c3 -6 -1 -7 -9 -4 -18
7 -21 14 -7 14 6 0 13 -4 16 -10z m-48 -30 c-47 -25 -59 -25 -28 0 13 11 33
20 44 20 17 0 13 -5 -16 -20z"/>
<path d="M8733 2138 c-1 -11 -8 -25 -15 -29 -10 -6 -10 -11 -1 -20 8 -8 12 -6
16 7 3 11 8 29 12 42 3 12 3 22 -2 22 -5 0 -9 -10 -10 -22z"/>
<path d="M6465 2130 c-4 -12 -5 -24 -2 -27 3 -2 8 5 12 17 4 12 5 24 2 27 -3
2 -8 -5 -12 -17z"/>
<path d="M6680 2146 c0 -2 7 -7 16 -10 8 -3 12 -2 9 4 -6 10 -25 14 -25 6z"/>
<path d="M6772 2145 c5 -6 28 -12 51 -14 5 -1 6 -5 3 -10 -4 -5 4 -7 16 -3 16
4 19 2 13 -8 -5 -8 -4 -11 3 -7 5 4 18 4 27 1 14 -6 14 -8 -4 -20 -11 -8 -28
-12 -38 -9 -10 3 11 -9 47 -26 36 -17 73 -31 83 -31 10 0 15 -4 11 -10 -4 -6
-1 -9 7 -6 8 3 20 -1 27 -9 7 -7 19 -13 25 -13 7 0 6 4 -2 9 -12 8 -12 12 -2
25 8 9 21 16 30 16 14 -1 14 -2 -2 -14 -10 -8 -14 -17 -8 -20 5 -3 11 -1 13 5
2 6 13 9 23 7 18 -3 16 -6 -9 -19 l-29 -16 33 -12 c18 -6 36 -9 38 -6 3 3 0 5
-7 5 -7 0 -9 5 -5 11 4 8 9 8 17 0 13 -13 30 -15 22 -2 -3 6 3 14 12 20 10 6
13 11 8 11 -6 0 -16 -5 -23 -12 -8 -8 -18 -3 -41 20 -16 18 -34 32 -40 32 -6
0 -66 23 -134 51 -112 47 -181 69 -165 54z m173 -69 c11 -7 25 -15 30 -16 6
-1 20 -6 33 -11 13 -5 28 -9 35 -9 7 0 5 -7 -5 -16 -12 -13 -20 -14 -37 -5
-12 7 -26 9 -31 6 -6 -3 -10 -1 -10 5 0 6 -5 8 -12 4 -7 -5 -8 -3 -4 5 5 8 3
11 -5 10 -8 -1 -27 1 -42 6 -26 7 -26 8 -10 21 23 17 34 17 58 0z m170 -96
c-3 -5 -14 -10 -23 -9 -14 0 -13 2 3 9 27 11 27 11 20 0z"/>
<path d="M6930 2066 c0 -2 7 -7 16 -10 8 -3 12 -2 9 4 -6 10 -25 14 -25 6z"/>
<path d="M6381 2124 c0 -11 3 -14 6 -6 3 7 2 16 -1 19 -3 4 -6 -2 -5 -13z"/>
<path d="M6740 2115 c14 -8 30 -14 35 -14 6 0 -1 6 -15 14 -14 8 -29 14 -35
14 -5 0 1 -6 15 -14z"/>
<path d="M6431 2104 c0 -11 3 -14 6 -6 3 7 2 16 -1 19 -3 4 -6 -2 -5 -13z"/>
<path d="M4326 2093 c-6 -14 -5 -15 5 -6 7 7 10 15 7 18 -3 3 -9 -2 -12 -12z"/>
<path d="M8616 2093 c-6 -14 -5 -15 5 -6 7 7 10 15 7 18 -3 3 -9 -2 -12 -12z"/>
<path d="M4286 2080 c3 -14 11 -32 16 -40 6 -10 7 -7 2 10 -3 14 -11 32 -16
40 -6 10 -7 7 -2 -10z"/>
<path d="M6452 2054 c-2 -19 -1 -34 2 -34 7 0 13 61 6 65 -3 2 -7 -12 -8 -31z"/>
<path d="M4336 2063 c-6 -14 -5 -15 5 -6 7 7 10 15 7 18 -3 3 -9 -2 -12 -12z"/>
<path d="M6415 2069 c-4 -6 -5 -12 -2 -15 2 -3 7 2 10 11 7 17 1 20 -8 4z"/>
<path d="M8650 2075 c0 -5 5 -17 10 -25 9 -13 10 -13 10 0 0 13 1 13 10 0 5
-8 10 -10 10 -5 0 6 -5 17 -10 25 -9 13 -10 13 -10 0 0 -13 -1 -13 -10 0 -5 8
-10 11 -10 5z"/>
<path d="M8699 2071 c10 -7 11 -13 2 -30 -7 -12 -16 -19 -22 -16 -9 6 -13 -7
-9 -39 1 -10 -3 -15 -8 -12 -6 3 -13 -1 -16 -10 -10 -25 -7 -26 15 -5 13 12
19 26 16 35 -4 10 -1 16 7 16 15 0 39 47 31 61 -4 5 -12 9 -18 9 -8 0 -8 -3 2
-9z"/>
<path d="M6365 2059 c-4 -5 -4 -13 -1 -16 3 -4 6 0 6 8 0 11 2 11 10 -1 6 -9
10 -10 10 -3 0 17 -17 25 -25 12z"/>
<path d="M3377 2046 c4 -5 0 -7 -8 -4 -8 3 -41 -7 -74 -23 -33 -16 -50 -27
-38 -25 13 2 25 1 28 -4 8 -12 -25 -21 -43 -11 -9 5 -31 3 -59 -6 -50 -17 -65
-33 -31 -33 20 -1 21 -2 6 -10 -17 -11 -51 -3 -43 10 2 4 -15 0 -40 -9 -30
-10 -41 -19 -34 -26 7 -7 12 -6 17 1 11 17 45 25 62 14 12 -8 10 -10 -10 -10
-14 0 -34 -7 -44 -15 -22 -17 -40 -20 -32 -6 3 5 -1 12 -10 15 -24 9 -31 7
-14 -5 12 -8 12 -10 -5 -8 -40 3 -55 -1 -55 -17 0 -9 5 -12 12 -8 7 4 8 3 4
-4 -4 -7 -22 -11 -39 -11 -18 1 -24 3 -14 6 9 2 17 8 17 13 0 6 -10 6 -22 1
-13 -5 -22 -16 -20 -25 2 -11 -5 -16 -22 -16 -14 0 -28 -5 -31 -10 -19 -30
301 82 485 169 50 24 59 31 39 31 -15 0 -32 -7 -39 -15 -15 -18 -31 -20 -24
-2 7 20 57 35 83 26 16 -6 20 -5 15 3 -5 7 -2 9 8 6 8 -4 21 -3 28 2 8 5 -1 9
-23 12 -21 2 -33 0 -30 -6z m-142 -86 c-11 -4 -26 -5 -34 -2 -9 3 -12 1 -8 -5
5 -7 -1 -9 -15 -5 -21 5 -21 6 -2 12 10 4 33 7 49 8 24 0 26 -1 10 -8z m-218
-86 c-3 -3 -12 -4 -19 -1 -8 3 -5 6 6 6 11 1 17 -2 13 -5z"/>
<path d="M4344 2028 c-4 -13 -7 -32 -5 -43 1 -17 0 -17 -8 -5 -13 18 -13 3 -1
-25 9 -21 11 -17 15 35 2 14 6 33 10 43 4 9 5 17 2 17 -3 0 -9 -10 -13 -22z"/>
<path d="M6424 1994 c2 -25 7 -49 11 -52 5 -4 5 6 1 21 -4 19 -3 26 4 22 11
-7 12 0 4 33 -11 39 -25 23 -20 -24z"/>
<path d="M6361 2016 c-9 -10 -8 -15 2 -19 8 -3 13 3 13 14 0 23 0 23 -15 5z"/>
<path d="M4365 1998 c4 -13 11 -27 16 -33 5 -5 4 5 -2 23 -12 36 -24 44 -14
10z"/>
<path d="M6390 1995 c0 -7 -7 -18 -15 -25 -8 -7 -15 -17 -15 -23 0 -12 38 21
50 44 6 11 5 16 -6 16 -7 0 -14 -6 -14 -12z"/>
<path d="M6345 1975 c-3 -8 -7 -22 -10 -30 -2 -8 1 -26 7 -40 8 -19 7 -27 -5
-39 -10 -11 -17 -12 -19 -4 -2 6 -14 -26 -26 -72 -16 -60 -19 -86 -12 -94 8
-8 9 -6 4 7 -3 9 -2 23 4 30 5 6 13 30 17 52 6 33 9 37 15 20 8 -19 9 -19 9 3
1 12 -5 22 -11 22 -18 0 13 20 32 20 11 0 11 -3 2 -12 -7 -7 -12 -21 -12 -32
1 -18 2 -19 10 -4 14 24 22 96 11 103 -5 3 -8 23 -7 45 3 41 -1 52 -9 25z"/>
<path d="M7182 1981 c-11 -7 -11 -9 2 -14 9 -4 23 -4 32 0 13 5 13 7 2 14 -7
5 -15 9 -18 9 -3 0 -11 -4 -18 -9z"/>
<path d="M1881 1942 c-16 -24 -19 -37 -12 -43 6 -5 9 -6 6 -3 -7 11 15 45 25
39 6 -4 7 2 3 12 -6 16 -5 16 11 4 9 -8 15 -20 12 -28 -3 -8 -2 -11 3 -8 5 3
22 -6 37 -20 15 -14 33 -25 40 -25 8 0 11 -6 7 -16 -5 -13 -2 -15 15 -9 13 3
22 2 22 -4 0 -5 -8 -12 -17 -15 -10 -2 0 -2 22 0 27 4 36 2 27 -4 -11 -7 -8
-11 12 -16 15 -4 24 -11 21 -16 -3 -6 -2 -10 4 -10 5 0 13 5 16 10 3 6 14 10
23 10 15 0 15 -2 2 -10 -11 -8 -8 -9 13 -4 15 3 27 2 27 -3 0 -5 14 -7 31 -5
l32 5 -22 -22 c-11 -11 -29 -21 -38 -21 -16 0 -16 2 -3 11 12 8 9 9 -11 5 -14
-3 -29 -2 -33 2 -4 4 -20 8 -34 9 -52 5 -53 5 -39 22 8 10 9 13 0 8 -6 -4 -14
-3 -18 3 -8 12 -52 13 -59 1 -12 -19 176 -72 250 -70 46 2 47 2 14 8 -34 6
-34 7 -13 19 12 6 48 11 80 11 47 -1 53 -3 28 -9 l-30 -8 27 -1 c15 0 30 4 33
10 4 6 39 10 83 9 129 -2 139 -2 122 10 -13 9 -12 11 4 8 11 -2 21 -8 23 -14
2 -6 -38 -17 -99 -27 -63 -10 -80 -14 -43 -11 94 7 235 35 235 46 0 7 -16 9
-39 5 -22 -3 -44 0 -50 6 -7 7 -21 7 -46 0 -19 -6 -45 -9 -57 -7 -21 4 -21 4
-3 -5 19 -9 0 -8 -222 3 -137 7 -296 75 -369 159 l-30 34 -23 -35z"/>
<path d="M7230 1959 c-11 -8 -9 -9 10 -4 32 9 15 -10 -19 -20 -18 -6 -22 -4
-16 6 5 8 5 11 0 7 -4 -4 -14 -3 -21 3 -9 8 -18 7 -31 -1 -11 -7 -12 -10 -3
-7 8 2 33 -6 55 -19 23 -13 51 -25 63 -27 12 -2 25 -6 28 -10 4 -4 19 -4 33
-1 20 4 23 3 11 -5 -8 -6 -10 -11 -5 -12 15 -1 28 -5 155 -43 207 -62 358 -88
525 -92 128 -2 140 -1 80 7 -38 5 -94 7 -124 3 -47 -5 -53 -4 -48 10 4 10 1
16 -9 16 -8 0 -12 -5 -9 -11 5 -7 -10 -9 -46 -4 -60 7 -132 22 -110 24 24 2
-20 30 -47 31 -13 0 -21 4 -18 9 4 5 0 12 -6 15 -7 3 14 3 47 1 51 -4 47 -2
-35 14 -52 10 -124 26 -159 35 -35 10 -66 15 -69 12 -3 -3 3 -6 14 -7 18 0 18
-1 -1 -9 -14 -7 -9 -8 18 -4 20 4 37 2 37 -2 0 -5 14 -9 30 -10 18 -1 40 -11
51 -23 11 -11 24 -21 30 -21 6 0 7 -4 4 -10 -3 -5 -16 -10 -28 -10 -17 0 -19
2 -8 9 12 8 9 11 -12 16 -15 4 -27 11 -27 16 0 5 -4 9 -10 9 -20 0 -9 -19 18
-29 25 -10 25 -11 2 -6 -14 2 -33 5 -42 5 -12 0 -16 5 -12 18 4 12 3 13 -4 4
-6 -9 -18 -11 -38 -6 -26 7 -26 8 -9 16 15 6 14 7 -7 3 -15 -3 -44 1 -64 10
-20 8 -41 12 -48 8 -8 -4 -8 -2 1 7 9 10 19 10 44 1 18 -6 36 -8 41 -3 7 7
-18 13 -69 16 -13 0 -23 4 -23 7 0 4 10 10 23 14 18 5 8 11 -53 31 -41 13 -75
24 -75 24 0 0 -7 -5 -15 -11z m88 -25 c14 -5 12 -9 -12 -19 -21 -9 -36 -9 -57
-1 l-29 10 28 12 c26 11 34 11 70 -2z m23 -25 c-13 -11 -26 -17 -29 -14 -7 6
29 34 43 34 6 0 -1 -9 -14 -20z m316 -65 c-3 -3 -12 -4 -19 -1 -8 3 -5 6 6 6
11 1 17 -2 13 -5z m56 -51 c-13 -2 -35 -2 -50 0 -16 2 -5 4 22 4 28 0 40 -2
28 -4z"/>
<path d="M6416 1931 c3 -18 2 -31 -2 -28 -5 3 -10 -14 -10 -37 l-2 -41 14 45
c10 32 11 52 4 70 -9 22 -9 21 -4 -9z"/>
<path d="M4386 1933 c-6 -14 -5 -15 5 -6 7 7 10 15 7 18 -3 3 -9 -2 -12 -12z"/>
<path d="M6390 1936 c0 -9 -4 -14 -10 -11 -5 3 -10 1 -10 -4 0 -6 5 -11 10
-11 13 0 25 28 16 37 -3 4 -6 -1 -6 -11z"/>
<path d="M8499 1923 c-13 -16 -12 -17 4 -4 16 13 21 21 13 21 -2 0 -10 -8 -17
-17z"/>
<path d="M8536 1928 c3 -5 10 -6 15 -3 13 9 11 12 -6 12 -8 0 -12 -4 -9 -9z"/>
<path d="M4357 1913 c-11 -11 -8 -20 7 -20 8 0 12 6 9 14 -6 15 -7 15 -16 6z"/>
<path d="M4399 1908 c-5 -49 -3 -69 8 -84 12 -16 13 -14 7 16 -4 25 -3 31 4
21 6 -8 9 -29 7 -48 -2 -18 1 -31 6 -28 10 7 24 -43 15 -52 -3 -4 -6 2 -6 13
0 16 -2 17 -11 4 -9 -13 -10 -13 -6 0 2 8 -4 27 -14 41 -10 15 -20 36 -22 48
-2 12 -9 27 -17 34 -10 10 -12 9 -7 -5 19 -55 72 -175 82 -188 7 -8 10 -21 7
-29 -3 -8 0 -11 7 -7 6 4 11 16 11 27 0 11 -5 17 -10 14 -16 -10 -24 25 -10
38 10 10 12 8 7 -5 -4 -10 -3 -17 1 -16 19 4 42 -16 41 -36 0 -21 -1 -21 -10
-1 -8 17 -8 16 -4 -7 3 -18 0 -28 -10 -30 -10 -2 -12 -7 -5 -17 7 -12 11 -10
21 12 12 27 35 27 25 0 -4 -9 -1 -22 5 -30 7 -7 9 -16 5 -20 -3 -4 -12 2 -20
12 -10 14 -15 15 -21 5 -6 -9 -4 -11 5 -5 9 6 12 4 8 -7 -4 -8 -3 -20 2 -27 5
-9 13 -5 28 14 l21 26 -26 57 c-15 31 -30 60 -36 63 -5 3 -8 9 -8 13 3 23 0
30 -9 16 -8 -12 -10 -10 -11 10 -3 41 -4 42 -28 108 -24 63 -30 72 -32 50z
m135 -304 c3 -8 2 -12 -4 -9 -6 3 -10 10 -10 16 0 14 7 11 14 -7z"/>
<path d="M7400 1910 c0 -5 12 -10 28 -9 24 0 25 1 7 9 -27 12 -35 12 -35 0z"/>
<path d="M8562 1902 c-3 -9 0 -18 7 -20 9 -3 9 -8 -1 -20 -8 -11 -4 -10 11 3
38 33 43 50 14 51 -14 1 -27 -5 -31 -14z m33 -1 c3 -5 1 -12 -4 -15 -5 -3 -11
1 -15 9 -6 16 9 21 19 6z"/>
<path d="M1893 1888 c-1 -12 6 -22 17 -25 11 -3 17 -9 14 -14 -3 -5 3 -6 12
-2 11 4 15 3 10 -5 -4 -6 3 -16 16 -23 20 -11 21 -10 11 3 -7 8 -10 17 -7 21
3 3 -4 8 -16 12 -16 5 -19 12 -15 28 5 19 5 20 -5 4 -6 -9 -16 -15 -21 -12 -5
4 -7 10 -4 15 3 5 2 11 -3 14 -4 2 -9 -5 -9 -16z"/>
<path d="M8528 1883 c-2 -33 -4 -38 -11 -50 -5 -9 -3 -11 6 -7 14 5 27 34 27
62 0 19 -20 14 -22 -5z"/>
<path d="M1960 1871 c0 -9 30 -24 36 -18 2 1 -6 8 -16 15 -11 7 -20 8 -20 3z"/>
<path d="M8420 1861 c0 -5 7 -17 16 -25 14 -15 14 -16 -1 -16 -10 0 -13 -5 -9
-12 5 -7 2 -9 -9 -5 -8 3 -20 0 -27 -7 -8 -10 -7 -15 6 -20 22 -8 26 -8 19 3
-3 6 3 9 12 9 27 -1 75 21 68 31 -3 5 -1 12 5 16 13 8 13 25 0 25 -5 0 -10 -7
-10 -16 0 -10 -7 -14 -22 -12 -16 2 -22 9 -20 21 2 10 -3 17 -13 17 -8 0 -15
-4 -15 -9z m60 -48 c-8 -3 -24 -10 -35 -16 -18 -9 -19 -9 -6 6 7 10 23 17 35
16 14 0 16 -2 6 -6z"/>
<path d="M2795 1840 c-33 -10 -62 -19 -65 -20 -12 -5 -27 -7 -57 -8 -18 -1
-33 -7 -33 -13 0 -6 9 -8 20 -4 11 3 35 7 52 7 18 1 36 5 39 10 3 5 16 4 30
-1 l24 -10 -25 -1 c-24 0 -66 -20 -45 -20 23 0 85 22 85 30 0 5 -10 11 -22 13
-18 3 -17 5 7 6 17 1 39 8 49 16 24 18 18 18 -59 -5z"/>
<path d="M6377 1833 c-4 -3 -7 -17 -7 -30 0 -12 -4 -23 -10 -23 -5 0 -10 -10
-11 -22 -1 -22 -1 -22 -9 2 -7 23 -8 23 -9 3 -1 -12 2 -29 5 -38 5 -13 11 -8
25 22 10 21 19 34 19 28 0 -5 5 -3 10 5 5 8 9 22 9 30 0 10 -3 9 -10 -5 -8
-17 -9 -16 -6 8 4 29 4 31 -6 20z"/>
<path d="M1990 1820 c0 -5 5 -10 11 -10 5 0 7 5 4 10 -3 6 -8 10 -11 10 -2 0
-4 -4 -4 -10z"/>
<path d="M7800 1820 c8 -5 31 -10 50 -11 33 -2 32 -2 -10 -9 l-45 -7 51 -1
c36 -2 53 2 57 12 6 14 -38 26 -93 26 -20 0 -22 -2 -10 -10z"/>
<path d="M8140 1825 c0 -9 72 -23 88 -17 13 5 10 8 -13 13 -37 8 -75 10 -75 4z"/>
<path d="M7950 1810 c19 -5 69 -5 110 -1 l75 8 -110 1 c-79 0 -100 -2 -75 -8z"/>
<path d="M8071 1791 c-12 -8 -9 -11 12 -17 16 -3 31 -4 34 0 4 3 -5 7 -18 7
-18 1 -15 3 11 9 35 7 35 7 5 9 -16 0 -37 -3 -44 -8z"/>
<path d="M8160 1789 c0 -5 5 -7 10 -4 6 3 10 8 10 11 0 2 -4 4 -10 4 -5 0 -10
-5 -10 -11z"/>
<path d="M8218 1783 c7 -3 16 -2 19 1 4 3 -2 6 -13 5 -11 0 -14 -3 -6 -6z"/>
<path d="M8330 1774 c0 -10 -6 -11 -24 -4 -13 5 -27 6 -30 3 -3 -3 -19 -6 -36
-5 -31 1 -43 -17 -12 -19 9 -1 -1 -5 -23 -9 -38 -7 -38 -7 -8 -9 27 -1 172 25
179 32 1 1 -8 7 -22 14 -19 9 -24 8 -24 -3z m-40 -14 c0 -5 -10 -10 -22 -9
-22 0 -22 1 -3 9 11 5 21 9 23 9 1 1 2 -3 2 -9z"/>
<path d="M7855 1770 c27 -12 43 -12 25 0 -8 5 -22 9 -30 9 -10 0 -8 -3 5 -9z"/>
<path d="M2333 1733 c9 -2 25 -2 35 0 9 3 1 5 -18 5 -19 0 -27 -2 -17 -5z"/>
<path d="M6321 1708 c-1 -10 -5 -18 -11 -18 -15 0 -12 -32 5 -54 8 -11 15 -27
15 -35 0 -14 -2 -14 -11 -1 -9 12 -10 12 -5 -3 10 -31 -4 -63 -32 -73 -22 -8
-31 -7 -46 8 -12 11 -14 18 -7 18 7 0 9 5 6 10 -3 6 -1 10 5 10 6 0 8 5 5 11
-4 5 1 26 10 45 9 19 15 40 12 47 -2 6 -16 -23 -31 -64 l-27 -75 -97 0 c-135
1 -204 -25 -288 -109 -144 -142 -164 -338 -52 -500 22 -33 41 -72 41 -87 0
-17 5 -24 14 -21 7 3 10 9 8 14 -3 4 13 -4 35 -18 22 -15 46 -28 53 -29 6 -1
41 -10 77 -19 254 -67 511 150 487 411 -12 122 -62 210 -171 297 -28 22 -42
37 -31 33 19 -5 24 3 47 76 41 128 41 131 29 124 -6 -4 -11 -19 -12 -34 -1
-24 -3 -22 -14 13 -8 22 -14 32 -14 23z m13 -50 c9 -37 7 -43 -9 -22 -16 21
-19 44 -6 44 5 0 11 -10 15 -22z m-212 -178 c77 -22 115 -78 111 -163 -1 -16
7 -37 18 -48 46 -46 4 -117 -74 -126 -26 -3 -49 -9 -52 -13 -2 -4 15 -5 38 -2
23 2 52 4 64 4 15 0 20 5 16 17 -3 12 -1 11 11 -3 9 -11 16 -15 16 -8 0 6 10
17 23 23 22 12 22 12 -2 -14 -13 -14 -26 -26 -30 -25 -20 2 -30 -4 -25 -15 3
-8 -11 -21 -36 -33 -22 -10 -38 -24 -36 -30 4 -10 -12 -11 -105 -4 -3 0 -11
11 -17 25 -7 14 -20 25 -31 25 -15 0 -19 5 -14 16 5 13 2 15 -16 9 -23 -7 -55
11 -45 26 3 5 -4 9 -16 9 -11 0 -39 17 -61 38 -52 48 -62 100 -31 165 22 47
46 72 60 63 5 -3 18 4 28 17 10 12 12 16 4 10 -8 -7 -19 -13 -24 -13 -6 0 -1
7 12 15 12 9 27 15 34 14 7 -1 20 -1 28 0 13 1 13 2 0 11 -13 8 -13 10 2 10 9
0 20 -4 23 -10 3 -5 14 -9 23 -9 15 1 15 2 0 6 -10 2 -18 9 -18 14 0 12 76 11
122 -1z m194 -292 c4 -7 4 -10 -1 -6 -4 4 -14 3 -22 -3 -8 -8 -13 -8 -13 -1 0
6 6 13 13 15 6 3 13 6 14 6 1 1 5 -5 9 -11z m-286 -179 c19 -17 28 -28 20 -25
-8 3 -23 9 -32 12 -10 4 -18 12 -18 19 0 7 -6 16 -12 18 -7 3 -8 6 -3 6 6 0
26 -13 45 -30z m111 0 c11 -11 18 -23 15 -26 -9 -9 -57 27 -51 37 9 14 12 13
36 -11z"/>
<path d="M5956 1131 c-3 -4 6 -6 19 -3 14 2 25 6 25 8 0 8 -39 4 -44 -5z"/>
<path d="M6017 1133 c-3 -5 6 -8 19 -8 13 0 24 3 24 8 0 4 -9 7 -19 7 -11 0
-22 -3 -24 -7z"/>
<path d="M4553 1557 c1 -15 6 -27 10 -27 5 0 5 -5 2 -10 -4 -6 -11 -8 -16 -5
-5 3 -6 -1 -2 -10 5 -13 7 -14 14 -3 7 10 9 11 9 0 0 -8 5 -10 12 -6 8 5 9 2
4 -12 -4 -10 -4 -15 0 -11 4 4 13 -5 20 -19 11 -20 11 -29 1 -45 -6 -10 -15
-19 -20 -19 -4 0 -5 -6 0 -12 4 -7 8 -19 9 -26 1 -7 21 -42 43 -78 23 -36 41
-68 41 -72 0 -14 105 -165 118 -170 7 -2 12 0 10 5 -1 4 4 19 11 32 10 18 15
21 22 10 4 -8 3 -20 -4 -29 -11 -13 -10 -13 6 -1 9 7 18 11 18 7 1 -3 2 -9 3
-13 1 -5 20 -26 44 -49 23 -22 42 -46 42 -52 0 -7 8 -12 17 -12 12 0 4 14 -28
48 -25 26 -58 64 -74 85 -15 20 -31 37 -35 37 -4 0 -12 -11 -18 -25 -11 -24
-12 -25 -30 -8 -13 12 -16 22 -9 31 5 6 7 13 3 13 -3 1 -10 3 -16 4 -5 1 -13
3 -17 4 -4 0 -2 6 5 13 8 8 15 8 28 -3 15 -12 17 -12 9 0 -5 8 -9 24 -10 36
-1 25 -63 125 -77 125 -5 0 -7 4 -3 10 3 5 -6 28 -21 51 -14 23 -47 84 -74
137 -31 62 -48 86 -47 69z m81 -152 c3 -8 1 -15 -4 -15 -6 0 -10 7 -10 15 0 8
2 15 4 15 2 0 6 -7 10 -15z m7 -25 c6 0 7 -5 4 -10 -4 -6 1 -22 10 -36 9 -13
13 -30 9 -37 -5 -9 -4 -9 5 -1 10 9 9 18 -4 40 l-17 29 21 -25 c11 -14 19 -31
16 -37 -2 -7 1 -16 8 -20 7 -5 25 -27 41 -51 22 -32 26 -46 18 -54 -7 -7 -12
-17 -12 -23 0 -5 4 -3 10 5 5 8 12 11 16 7 9 -8 -27 -37 -38 -31 -4 3 -4 12
-1 21 4 10 2 14 -4 10 -6 -4 -18 9 -28 31 -10 20 -33 60 -52 88 -20 31 -31 58
-27 68 3 9 1 16 -5 16 -6 0 -11 5 -11 11 0 6 7 8 16 5 9 -3 20 -6 25 -6z"/>
<path d="M4620 1343 c0 -6 8 -17 18 -24 16 -13 16 -13 2 6 -8 11 -16 22 -17
24 -2 2 -3 0 -3 -6z"/>
<path d="M4682 1251 c13 -15 26 -26 31 -24 14 8 20 -29 6 -38 -10 -6 -10 -9
-1 -9 34 0 33 23 -4 58 -13 13 -24 27 -24 32 0 6 -7 10 -16 10 -12 0 -11 -6 8
-29z"/>
<path d="M4522 1535 c-10 -12 -7 -25 18 -75 17 -33 33 -60 36 -60 3 0 4 7 1
15 -4 8 -2 17 3 20 4 3 11 -1 13 -7 4 -9 6 -10 6 -1 1 17 -16 26 -24 12 -10
-16 -47 70 -40 93 7 21 4 22 -13 3z"/>
<path d="M4790 1153 c0 -5 10 -18 23 -29 l22 -19 -20 25 c-11 14 -21 27 -22
29 -2 2 -3 0 -3 -6z"/>
<path d="M4830 1023 c0 -8 -7 -10 -17 -6 -21 8 6 -32 86 -127 69 -82 81 -94
81 -81 0 5 -5 13 -11 17 -8 4 -7 9 2 16 11 7 11 8 -1 6 -9 -2 -17 0 -18 5 -1
4 0 7 3 7 3 0 12 0 21 0 10 0 14 -6 11 -15 -4 -8 -2 -17 4 -21 5 -3 7 -14 4
-24 -4 -13 4 -25 25 -40 18 -12 43 -34 57 -48 25 -25 27 -25 33 -7 7 20 -15
44 -27 31 -4 -3 -1 -6 5 -6 7 0 12 -4 12 -10 0 -5 -7 -7 -15 -4 -8 4 -15 15
-15 25 0 12 -5 16 -15 13 -8 -4 -17 1 -21 10 -3 9 -11 13 -18 9 -6 -3 -8 -3
-4 1 3 4 2 21 -2 37 -10 34 0 37 26 7 17 -19 17 -21 2 -15 -21 8 -24 -6 -4
-22 11 -9 15 -9 19 1 4 9 8 10 14 2 4 -6 19 -17 33 -24 15 -8 7 5 -22 32 -27
24 -48 50 -48 56 0 7 -4 11 -9 8 -11 -7 -33 18 -24 27 11 12 25 8 17 -5 -5 -7
-3 -8 5 -4 21 13 -17 47 -47 41 -16 -3 -30 2 -38 13 -11 14 -13 15 -14 2 0 -9
5 -21 12 -28 7 -7 8 -12 3 -12 -6 0 -4 -4 4 -9 9 -6 10 -11 2 -15 -5 -4 -17 6
-25 21 -8 15 -23 34 -35 42 -11 8 -17 19 -14 24 3 6 1 7 -5 3 -7 -4 -12 -1
-12 8 0 8 6 16 13 19 8 3 5 12 -10 28 -13 13 -23 18 -23 12z m20 -34 c0 -6 -4
-7 -10 -4 -5 3 -10 11 -10 16 0 6 5 7 10 4 6 -3 10 -11 10 -16z m131 -99 c6 0
7 5 3 12 -4 7 -3 8 5 4 9 -6 9 -11 -1 -23 -8 -10 -14 -11 -16 -4 -2 6 -8 9
-13 5 -11 -6 -12 9 -2 20 4 4 9 2 11 -3 2 -6 8 -11 13 -11z"/>
<path d="M5792 833 c-6 -10 -14 -18 -19 -17 -4 1 -21 -9 -38 -21 -16 -13 -49
-33 -72 -45 -24 -12 -43 -24 -43 -26 0 -6 45 13 81 35 46 28 61 26 25 -4 -23
-18 -25 -23 -10 -22 10 1 19 -3 19 -10 0 -19 12 -25 18 -9 3 8 -1 17 -10 20
-14 6 -13 9 3 27 11 12 18 23 17 25 -1 2 0 11 3 19 5 13 9 13 23 3 9 -7 13 -8
9 -4 -4 5 -3 15 4 23 6 7 8 16 5 19 -3 3 -10 -3 -15 -13z"/>
<path d="M5120 802 c0 -7 -7 -9 -17 -5 -11 4 -14 3 -9 -6 4 -6 13 -11 19 -10
19 3 47 -12 42 -22 -3 -4 5 -13 17 -19 22 -11 22 -10 4 4 -14 12 -16 16 -5 16
19 0 71 -35 63 -43 -3 -3 4 -3 17 0 19 5 14 10 -37 36 -32 16 -67 36 -76 45
-11 9 -18 11 -18 4z"/>
<path d="M5851 787 c-8 -10 -7 -14 4 -14 8 0 12 4 9 9 -3 4 -1 8 4 8 21 0 19
-15 -5 -46 -20 -27 -29 -32 -39 -23 -9 7 -14 8 -14 1 0 -35 81 6 86 45 5 29
-26 42 -45 20z"/>
<path d="M5139 731 c10 -7 11 -9 1 -13 -7 -2 -15 -14 -17 -26 -2 -19 -1 -21
11 -10 8 7 12 16 10 20 -2 4 0 9 6 13 13 8 3 25 -13 25 -8 0 -7 -3 2 -9z"/>
<path d="M5280 706 c0 -8 7 -17 16 -20 14 -5 15 -4 5 8 -9 11 -9 15 1 19 8 4
7 6 -4 6 -10 1 -18 -5 -18 -13z"/>
<path d="M5588 713 c7 -3 16 -2 19 1 4 3 -2 6 -13 5 -11 0 -14 -3 -6 -6z"/>
<path d="M5320 700 c0 -5 8 -10 18 -10 14 0 15 -2 2 -10 -13 -8 -12 -10 3 -10
9 0 17 4 17 9 0 5 6 11 13 14 6 2 4 3 -5 2 -10 -2 -21 1 -24 6 -7 12 -24 11
-24 -1z"/>
<path d="M5480 694 l-65 -13 70 5 c39 3 74 10 80 15 11 11 0 10 -85 -7z"/>
<path d="M5232 675 c0 -16 2 -22 5 -12 2 9 2 23 0 30 -3 6 -5 -1 -5 -18z"/>
<path d="M5769 697 c-1 -1 -2 -14 -3 -29 -2 -23 0 -26 11 -17 10 9 10 15 2 25
-13 16 2 19 18 3 7 -7 12 -6 16 3 3 9 -4 15 -19 16 -13 1 -24 1 -25 -1z"/>
<path d="M5176 675 c-10 -8 -23 -12 -29 -8 -6 3 -7 1 -3 -5 4 -6 14 -8 23 -5
12 5 14 3 8 -7 -5 -9 -4 -11 3 -6 7 4 12 3 12 -3 0 -6 15 -18 33 -27 29 -16
31 -16 18 -1 -7 10 -20 17 -27 17 -14 0 -17 8 -17 43 0 9 0 17 -1 17 0 0 -10
-7 -20 -15z"/>
<path d="M5535 670 c-3 -6 1 -7 9 -4 18 7 21 14 7 14 -6 0 -13 -4 -16 -10z"/>
<path d="M5413 663 c15 -2 25 -8 22 -13 -3 -5 0 -12 6 -16 8 -4 9 -3 5 4 -5 8
1 12 16 13 23 1 23 1 -2 9 -14 4 -36 8 -50 8 -23 -1 -23 -1 3 -5z"/>
<path d="M5575 660 c-16 -7 -17 -9 -3 -9 9 -1 20 4 23 9 7 11 7 11 -20 0z"/>
<path d="M5335 650 c-3 -6 1 -7 9 -4 18 7 21 14 7 14 -6 0 -13 -4 -16 -10z"/>
<path d="M5264 634 c-18 -15 -18 -15 3 -5 12 6 30 8 40 5 15 -5 15 -4 3 5 -20
14 -23 14 -46 -5z"/>
<path d="M5630 631 c8 -6 23 -11 33 -11 9 0 17 -5 17 -11 0 -6 -7 -8 -16 -5
-9 3 -27 6 -40 6 -17 0 -23 4 -18 13 5 9 3 9 -7 -1 -12 -11 -12 -14 1 -22 8
-5 26 -7 40 -4 17 3 13 -1 -10 -10 -19 -8 -29 -15 -21 -15 18 -1 118 46 126
59 3 6 1 10 -4 10 -6 0 -11 -5 -11 -11 0 -11 -43 -7 -88 8 -15 4 -15 3 -2 -6z"/>
<path d="M5269 603 c-7 -10 -9 -15 -5 -11 5 4 14 4 21 -2 21 -18 129 -40 194
-40 85 0 75 7 -19 14 -100 8 -110 9 -110 17 0 4 -17 10 -37 14 -27 5 -33 9
-22 16 8 5 9 9 3 9 -6 0 -18 -8 -25 -17z"/>
<path d="M5543 596 c4 -10 7 -22 7 -27 0 -5 9 -9 20 -9 27 0 25 11 -7 34 -24
18 -26 18 -20 2z"/>
<path d="M5420 590 c0 -5 5 -10 10 -10 6 0 10 5 10 10 0 6 -4 10 -10 10 -5 0
-10 -4 -10 -10z"/>
</g>
</svg>
